# Generated from Models/Env/Trees/TreeStumps/Colliders/TreeStumpDarkBCH0.asset
o TreeStumpDarkBCH0
v -30.778986 -31.518232 -1.035399
v 30.658965 -33.275322 0.720878
v 28.896896 -35.038598 1.600736
v 8.708249 9.723856 33.196534
v 13.104406 27.288557 -1.035399
v -23.748743 20.2602 1.600736
v -10.590341 -9.573185 30.563835
v 6.958205 -12.208818 34.076391
v -14.980484 -2.557204 30.563835
v -28.138888 -35.03241 2.477156
v -0.932025 14.995122 29.683978
v 13.104406 6.209678 32.316677
v 28.896896 -35.038598 -1.035399
v -23.748743 20.2602 -1.035399
v -12.346398 7.972954 29.683978
v 13.104406 27.288557 1.600736
v 14.860463 -3.435749 31.440256
v -30.778986 -31.518232 1.600736
v -0.06001 -13.965907 32.316677
v 28.024879 -20.988075 -0.155542
v -24.632786 18.503113 1.600736
v -28.138888 -35.917143 -1.035399
v 12.226377 9.723856 32.316677
v 13.982434 26.403824 0.720878
f 16 23 24
f 8 4 9
f 7 9 10
f 4 8 12
f 2 3 13
f 1 5 13
f 5 1 14
f 6 5 14
f 9 4 15
f 4 11 15
f 11 6 15
f 5 6 16
f 6 11 16
f 3 2 17
f 8 3 17
f 2 12 17
f 12 8 17
f 10 9 18
f 3 8 19
f 9 7 19
f 8 9 19
f 10 3 19
f 7 10 19
f 12 2 20
f 2 13 20
f 13 5 20
f 14 1 21
f 6 14 21
f 15 6 21
f 9 15 21
f 1 18 21
f 18 9 21
f 3 10 22
f 13 3 22
f 1 13 22
f 18 1 22
f 10 18 22
f 11 4 23
f 4 12 23
f 16 11 23
f 12 20 23
f 23 20 24
f 5 16 24
f 20 5 24
