# Generated from Models/Env/Trees/TreeStumps/Colliders/TreeStumpBirchCCH0.asset
o TreeStumpBirchCCH0
v 0.030467 23.618957 1.370172
v 21.690749 -6.573242 1.370172
v 4.619072 -8.539181 15.151245
v -22.2841 3.922561 -0.597782
v -0.623818 -22.980738 -0.597782
v -8.496762 -3.284341 17.777582
v 7.249126 5.897752 15.151245
v 1.997627 24.275813 -0.597782
v -7.183888 5.897752 15.806031
v 21.690749 -3.945822 -0.597782
v 9.216286 -2.627486 16.464414
v -22.2841 5.893126 0.057004
v -0.623818 -22.980738 0.713588
v 0.684752 9.177401 15.151245
v -7.183888 -5.254906 17.777582
v 1.997627 24.275813 0.713588
v 21.690749 -4.602677 1.370172
v -22.2841 3.922561 0.713588
v 0.680448 -22.980738 0.713588
v -4.562442 -8.539181 15.806031
v -7.842477 4.579416 16.464414
v 21.690749 -6.573242 -0.597782
v -0.623818 24.275813 0.057004
v -8.496762 -1.970631 17.777582
f 21 18 24
f 5 4 8
f 5 8 10
f 3 2 11
f 4 5 13
f 1 9 14
f 11 7 14
f 3 11 15
f 10 8 16
f 1 14 16
f 14 7 16
f 2 10 17
f 11 2 17
f 7 11 17
f 16 7 17
f 10 16 17
f 12 4 18
f 4 13 18
f 15 6 18
f 13 15 18
f 2 3 19
f 13 5 19
f 13 19 20
f 3 15 20
f 15 13 20
f 19 3 20
f 9 12 21
f 14 9 21
f 12 18 21
f 10 2 22
f 5 10 22
f 2 19 22
f 19 5 22
f 8 4 23
f 9 1 23
f 4 12 23
f 12 9 23
f 1 16 23
f 16 8 23
f 11 14 24
f 6 15 24
f 15 11 24
f 18 6 24
f 14 21 24
