# Generated from Models/Env/Ground/SmallPiles/Colliders/DirtPileA_ConvexHull_0.asset
o DirtPileA_ConvexHull_0
v -14.213833 -0.233003 -0.463852
v 14.19833 -1.081381 -0.436534
v 13.616904 -1.024812 0.831207
v -0.265211 17.873994 -0.463852
v -2.517748 3.015671 9.901107
v -2.171328 -13.253466 -0.463852
v 7.646785 1.986627 9.49191
v -1.194532 -10.089068 5.665331
v -3.782323 15.152665 4.404381
v 2.606213 14.263562 5.724428
v 7.593363 -7.802713 4.906065
v -10.415406 -3.703257 5.073525
v 9.640516 7.288106 4.963973
v -11.992174 1.650257 4.206571
v -8.891816 12.178947 -0.463852
v -0.836867 -4.948057 9.027119
v 7.075049 12.059087 -0.463852
v 1.481715 10.873705 8.641587
v 9.004286 -8.53756 -0.463852
v -7.179142 2.994962 8.207905
v 11.433793 -0.154872 6.172374
v -6.735768 -8.788503 4.464972
v -8.011389 -9.307018 -0.463852
v 13.844545 2.535607 -0.463852
f 13 21 24
f 1 4 6
f 4 9 10
f 2 3 11
f 8 6 11
f 1 12 14
f 4 1 15
f 9 4 15
f 1 14 15
f 14 9 15
f 7 5 16
f 11 7 16
f 8 11 16
f 6 4 17
f 4 10 17
f 10 13 17
f 5 7 18
f 10 9 18
f 7 13 18
f 13 10 18
f 2 11 19
f 11 6 19
f 6 17 19
f 9 14 20
f 14 12 20
f 16 5 20
f 12 16 20
f 5 18 20
f 18 9 20
f 3 2 21
f 11 3 21
f 7 11 21
f 13 7 21
f 6 8 22
f 8 16 22
f 16 12 22
f 1 6 23
f 12 1 23
f 6 22 23
f 22 12 23
f 17 13 24
f 2 19 24
f 19 17 24
f 21 2 24
