# Generated from Models/Env/Ground/SmallPiles/Colliders/DirtPileB_ConvexHull_0.asset
o DirtPileB_ConvexHull_0
v -5.007525 -0.839316 5.968318
v 10.130352 -5.666367 -0.273072
v 9.174728 -6.470346 1.204161
v -3.177718 -31.413542 -0.330479
v -11.626307 18.900206 -2.74985
v 1.726634 21.097261 3.99128
v 2.496686 -8.988625 6.54852
v -1.032339 -31.173998 4.383058
v 1.130432 24.056424 0.381566
v -7.01667 -13.117978 3.588287
v 4.86747 -0.730303 6.685076
v 5.272981 -21.834168 3.939209
v 1.981027 -29.415279 -0.330479
v -1.781795 3.310555 7.411477
v -5.085685 18.758641 3.325155
v -11.269248 5.221615 -0.976243
v 4.26993 16.978672 -0.126247
v 7.6069 -2.799586 4.721739
v 8.467262 -13.71931 -0.403532
v -4.537347 -25.978283 3.711155
v 0.691477 11.27614 6.743353
v -0.416538 25.812305 0.363127
v -7.121323 10.676422 3.437255
v -1.721734 -21.385027 5.73396
f 20 8 24
f 2 3 12
f 7 8 12
f 11 7 12
f 4 5 13
f 8 4 13
f 12 8 13
f 7 11 14
f 5 4 16
f 10 1 16
f 2 5 17
f 9 6 17
f 3 2 18
f 6 11 18
f 12 3 18
f 11 12 18
f 2 17 18
f 17 6 18
f 5 2 19
f 2 12 19
f 13 5 19
f 12 13 19
f 4 8 20
f 1 10 20
f 16 4 20
f 10 16 20
f 11 6 21
f 14 11 21
f 6 15 21
f 15 14 21
f 6 9 22
f 5 15 22
f 15 6 22
f 17 5 22
f 9 17 22
f 1 14 23
f 15 5 23
f 14 15 23
f 16 1 23
f 5 16 23
f 8 7 24
f 14 1 24
f 7 14 24
f 1 20 24
