# Generated from Models/Env/Ground/SmallPiles/Colliders/DirtPileD_ConvexHull_0.asset
o DirtPileD_ConvexHull_0
v 21.310967 -9.585461 -0.220365
v -9.489004 24.645868 -0.220365
v 0.564689 24.595657 -0.220365
v 9.962054 -1.630301 12.681418
v -27.101014 -10.385717 -0.220365
v -1.705415 -21.952171 -0.220365
v 21.265524 16.763242 -0.222264
v -7.378305 -4.046597 10.364951
v -22.031388 20.135993 -0.220365
v 3.869565 6.492517 11.698373
v -19.002762 5.330519 5.128061
v 12.148672 -18.915914 -0.220365
v 24.631906 -0.418914 -0.026302
v -14.739566 -11.210159 5.896931
v 8.357579 -7.443739 10.308244
v 3.979936 17.24257 6.056049
v 9.803884 6.357072 11.160425
v 24.617279 10.3455 -0.101964
v 14.456389 22.087367 -0.096155
v -17.254769 -18.222933 -0.220365
v -20.225728 -4.280006 5.20392
v -25.996812 9.033441 -0.105162
v 0.939415 1.345284 12.559244
v 13.307428 -4.773355 9.644076
f 15 12 24
f 2 3 7
f 7 5 9
f 2 7 9
f 2 9 10
f 6 7 12
f 7 1 12
f 8 14 15
f 4 8 15
f 6 12 15
f 14 6 15
f 3 2 16
f 2 10 16
f 16 10 17
f 10 4 17
f 7 17 18
f 1 7 18
f 13 1 18
f 4 13 18
f 17 4 18
f 7 3 19
f 3 16 19
f 16 17 19
f 17 7 19
f 5 7 20
f 7 6 20
f 6 14 20
f 14 5 20
f 8 11 21
f 5 14 21
f 14 8 21
f 9 5 22
f 11 9 22
f 5 21 22
f 21 11 22
f 8 4 23
f 10 9 23
f 4 10 23
f 11 8 23
f 9 11 23
f 12 1 24
f 1 13 24
f 13 4 24
f 4 15 24
