# Generated from Models/Env/Ground/SmallPiles/Colliders/DirtPileF_ConvexHull_0.asset
o DirtPileF_ConvexHull_0
v -35.807813 9.02894 -0.28871
v 33.555813 -3.18784 -0.28871
v 13.658524 -2.239065 16.917382
v 7.987286 40.46922 -0.28871
v 1.295144 -33.026769 -0.28871
v -0.068175 -2.602202 27.599636
v -30.673465 -12.093913 -0.28871
v 28.3986 26.57423 -0.28871
v -12.926035 36.451166 -0.28871
v 19.066766 -26.634411 -0.28871
v -28.568634 24.336847 -0.28871
v -9.035552 -30.016159 -0.28871
v 19.184356 36.810234 -0.28871
v 33.543831 13.895895 -0.28871
v 30.689835 -12.434806 -0.28871
v 1.393163 -2.12681 27.372444
v -35.867699 -0.973283 -0.28871
v 13.391162 -30.934958 -0.28871
v -20.345589 -22.414176 -0.28871
v 7.795369 -10.089953 19.088959
v 3.340046 40.678883 -0.28871
v -34.785886 13.759187 -0.28871
v 10.548599 0.894588 20.132759
v 25.181042 -20.677852 -0.28871
f 15 20 24
f 2 1 4
f 1 2 5
f 1 5 7
f 2 4 8
f 4 1 9
f 5 2 10
f 9 1 11
f 6 9 11
f 5 6 12
f 7 5 12
f 8 4 13
f 2 8 14
f 2 3 15
f 10 2 15
f 13 4 16
f 8 13 16
f 15 3 16
f 6 1 17
f 7 6 17
f 1 7 17
f 6 5 18
f 5 10 18
f 6 7 19
f 12 6 19
f 7 12 19
f 15 16 20
f 16 6 20
f 6 18 20
f 18 10 20
f 4 9 21
f 9 6 21
f 16 4 21
f 6 16 21
f 1 6 22
f 11 1 22
f 6 11 22
f 3 2 23
f 2 14 23
f 14 8 23
f 8 16 23
f 16 3 23
f 10 15 24
f 20 10 24
