# Generated from Models/Env/Ground/SmallPiles/Colliders/DirtPileE_ConvexHull_0.asset
o DirtPileE_ConvexHull_0
v 3.979852 -3.199725 11.958457
v -7.889369 24.834233 0.03351
v 30.081566 9.453898 -0.030976
v -35.228304 -7.043883 0.142366
v -1.30728 3.944062 13.76067
v 19.303272 -15.303232 -0.001909
v -22.755025 23.981573 0.06975
v 19.852228 23.289098 0.076797
v -21.230182 -20.599291 -0.092686
v -13.17007 2.915516 12.015997
v 11.743524 -1.634 12.138832
v 0.979912 -20.320335 -1.202763
v 30.339232 -5.070957 -0.088582
v -33.918021 8.049129 -0.090867
v -17.311393 -6.0375 8.597576
v -1.506371 15.122418 7.418735
v 15.09481 10.527555 7.617758
v -3.174364 -1.826855 12.987173
v 8.599199 -5.963753 10.091781
v 3.082422 25.089556 0.021008
v 5.004551 15.471827 6.934155
v -13.181258 3.970508 11.930112
v -6.740164 14.812933 7.486384
v 0.235561 3.858005 13.873054
f 23 5 24
f 7 2 12
f 8 3 12
f 9 4 12
f 11 6 13
f 3 11 13
f 12 3 13
f 6 12 13
f 4 10 14
f 7 12 14
f 12 4 14
f 4 9 15
f 10 4 15
f 3 8 17
f 11 3 17
f 5 10 18
f 1 11 18
f 15 9 18
f 10 15 18
f 11 1 19
f 6 11 19
f 12 6 19
f 9 12 19
f 1 18 19
f 18 9 19
f 12 2 20
f 8 12 20
f 2 16 20
f 20 16 21
f 17 8 21
f 8 20 21
f 10 5 22
f 14 10 22
f 7 14 22
f 2 7 23
f 16 2 23
f 22 5 23
f 7 22 23
f 11 17 24
f 5 18 24
f 18 11 24
f 21 16 24
f 17 21 24
f 16 23 24
