# Generated from Models/Env/Ground/SmallPiles/Colliders/DirtPileC_ConvexHull_0.asset
o DirtPileC_ConvexHull_0
v -0.880452 -5.774628 10.849832
v -0.284642 16.603494 1.191874
v 6.939813 -14.494901 0.646649
v -19.396269 0.455953 0.981414
v 17.704215 8.450288 0.977979
v 6.298926 2.05504 12.468188
v -1.18418 5.5956 11.375463
v -18.175626 9.228217 0.206125
v 9.721585 -5.701682 9.329268
v -4.360168 -13.369931 0.862335
v 11.003269 12.351364 5.185803
v -5.431491 -0.516024 11.459132
v 14.423457 -7.792054 0.923597
v -1.128301 -12.982563 5.207138
v 0.516337 14.569525 5.28984
v -14.755031 -3.242163 4.07879
v 13.547555 14.547034 1.402162
v 14.729116 -0.628813 5.352368
v 5.910539 -7.178448 10.43427
v 7.83576 8.634752 9.347976
v 12.190022 3.226152 8.302281
v -0.238397 -1.594802 12.962033
v 6.266304 -12.8929 4.917103
v -15.334623 1.6234 5.066683
f 16 12 24
f 2 5 8
f 5 3 8
f 8 3 10
f 4 8 10
f 3 5 13
f 10 3 14
f 2 8 15
f 8 7 15
f 4 10 16
f 1 12 16
f 14 1 16
f 10 14 16
f 5 2 17
f 11 5 17
f 2 15 17
f 15 11 17
f 13 5 18
f 9 13 18
f 9 6 19
f 1 14 19
f 7 6 20
f 15 7 20
f 11 15 20
f 6 9 21
f 5 11 21
f 18 5 21
f 9 18 21
f 20 6 21
f 11 20 21
f 6 7 22
f 12 1 22
f 7 12 22
f 1 19 22
f 19 6 22
f 3 13 23
f 13 9 23
f 14 3 23
f 9 19 23
f 19 14 23
f 8 4 24
f 7 8 24
f 12 7 24
f 4 16 24
