# Generated from Models/Env/Ground/SmallPiles/Colliders/DirtPileG_ConvexHull_0.asset
o DirtPileG_ConvexHull_0
v -5.595616 19.486807 5.774636
v 14.156998 -20.007334 -0.75377
v -16.835148 15.292304 -0.890499
v 8.63489 40.027353 0.652337
v -1.59737 -6.916013 8.51494
v -8.882301 -42.024884 -1.18269
v -15.545582 -17.659696 -2.528595
v 1.612364 -45.961388 -0.771966
v -5.023877 46.75669 0.984444
v -6.472911 -18.607511 6.031237
v 13.669876 20.868633 -0.002483
v 1.190373 24.605605 5.916661
v 0.86858 -22.28705 5.856856
v -0.097657 3.394447 8.424551
v -1.216771 46.87696 0.527048
v -14.169907 28.264773 0.11194
v -4.290182 26.148742 5.836019
v -4.352859 -46.871159 -0.785185
v 14.571857 0.914223 -0.622335
v 10.862041 36.564945 0.599638
v 4.861049 -20.891156 4.452851
v -1.769347 3.462699 8.593634
v 5.635902 -39.817452 -0.85297
v 8.424512 -2.185803 3.470968
f 14 21 24
f 6 7 8
f 7 6 10
f 3 7 10
f 5 10 13
f 7 3 15
f 4 11 15
f 11 7 15
f 9 12 15
f 12 4 15
f 3 1 16
f 15 3 16
f 9 15 16
f 12 9 17
f 16 1 17
f 9 16 17
f 6 8 18
f 10 6 18
f 8 13 18
f 13 10 18
f 2 7 19
f 7 11 19
f 11 4 20
f 4 12 20
f 14 11 20
f 12 14 20
f 5 13 21
f 14 5 21
f 1 3 22
f 3 10 22
f 10 5 22
f 5 14 22
f 14 12 22
f 17 1 22
f 12 17 22
f 7 2 23
f 8 7 23
f 13 8 23
f 2 21 23
f 21 13 23
f 11 14 24
f 2 19 24
f 19 11 24
f 21 2 24
