# Generated from Models/Env/Ground/SmallPiles/Colliders/DirtPileH_ConvexHull_0.asset
o DirtPileH_ConvexHull_0
v -14.214586 17.856224 -0.753049
v 16.992337 -17.81099 -0.760863
v 17.101011 -4.82825 -1.480834
v 3.236738 8.466646 8.543974
v -12.440838 -40.902587 0.639713
v 5.666558 43.63629 -0.843799
v 4.876973 -49.387977 0.987355
v -1.309462 -4.467465 8.789544
v -8.337986 41.446021 -0.863105
v 14.425121 20.565134 -2.442717
v 4.251562 -28.672076 5.782505
v -16.417855 -19.325132 0.259823
v 6.417924 16.259249 5.907112
v -3.902255 -39.409513 3.229
v 0.063641 -49.255903 0.548984
v -1.271705 19.041266 6.015319
v 3.027558 -1.923512 8.720062
v 14.565672 -29.586006 -0.014125
v -7.372248 17.362023 3.65917
v -16.379562 -3.402906 -0.055817
v -14.980445 -31.191872 0.340258
v 11.548543 32.420286 -1.754511
v 15.810818 9.979944 -2.253932
v 7.784842 5.928624 6.000029
f 23 13 24
f 1 9 10
f 6 4 13
f 8 5 14
f 7 11 14
f 11 8 14
f 3 2 15
f 14 5 15
f 7 14 15
f 4 6 16
f 8 4 16
f 6 9 16
f 4 8 17
f 8 11 17
f 17 11 18
f 11 7 18
f 15 2 18
f 7 15 18
f 2 17 18
f 9 1 19
f 8 16 19
f 16 9 19
f 12 8 20
f 1 12 20
f 19 1 20
f 8 19 20
f 5 8 21
f 1 10 21
f 8 12 21
f 12 1 21
f 15 5 21
f 9 6 22
f 10 9 22
f 6 13 22
f 13 10 22
f 10 13 23
f 3 15 23
f 21 10 23
f 15 21 23
f 2 3 24
f 13 4 24
f 17 2 24
f 4 17 24
f 3 23 24
