# Generated from Models/Env/Ground/SmallPiles/Colliders/GrassPileE_ConvexHull_0.asset
o GrassPileE_ConvexHull_0
v -21.1845 24.851335 -0.742653
v 21.677124 2.333392 -2.041421
v 21.684328 4.123653 -2.040996
v -2.239624 4.15928 13.923273
v -10.860821 -32.022644 -0.897085
v 7.009618 37.314909 -0.900099
v 17.952027 -27.352338 -0.904562
v -24.505814 -24.242848 -0.742125
v 3.314263 20.560121 10.647113
v -3.230437 -11.553142 11.786951
v 3.031716 0.266737 12.871212
v -8.411806 39.567023 -0.842634
v 17.899961 25.390057 -0.808627
v -10.115999 25.110671 6.655439
v -24.847402 9.20473 -0.792012
v -3.976935 4.37663 13.910772
v 4.72354 -32.985858 -0.688418
v 7.42843 11.479223 9.680206
v -5.770223 -11.743309 11.644319
v 3.746764 -15.94114 8.465602
v 7.493658 25.059847 6.984071
v -0.728577 20.468494 10.581128
v -19.911755 28.304422 -0.739048
v -9.652752 22.719499 7.622054
f 23 1 24
f 5 2 7
f 2 5 8
f 7 2 11
f 9 4 11
f 4 10 11
f 6 3 12
f 9 6 12
f 3 6 13
f 1 3 15
f 3 2 15
f 2 8 15
f 4 9 16
f 10 4 16
f 15 8 16
f 5 7 17
f 2 3 18
f 11 2 18
f 9 11 18
f 3 13 18
f 8 5 19
f 10 16 19
f 16 8 19
f 5 17 19
f 17 10 19
f 7 11 20
f 11 10 20
f 17 7 20
f 10 17 20
f 6 9 21
f 13 6 21
f 9 18 21
f 18 13 21
f 9 12 22
f 12 14 22
f 16 9 22
f 3 1 23
f 12 3 23
f 14 12 23
f 14 23 24
f 1 15 24
f 15 16 24
f 22 14 24
f 16 22 24
