# Generated from Models/Env/Ground/SmallPiles/Colliders/GrassPileC_ConvexHull_0.asset
o GrassPileC_ConvexHull_0
v -22.437058 10.591161 -0.557858
v 23.128224 1.983095 -0.557858
v 11.979714 1.009938 8.095548
v -4.812435 -17.717358 -0.557858
v 0.436395 30.256201 -0.401369
v -3.882409 -1.742563 10.861261
v 14.900675 -17.380159 -0.557858
v -20.565171 -11.559338 -0.557858
v 10.133139 12.044127 7.34441
v 16.054509 22.526526 -0.557858
v -1.443113 4.549966 10.980288
v -10.640741 27.283936 -0.557858
v -25.331327 5.015351 -0.557858
v 4.458351 -6.146726 8.699805
v 5.585139 5.185797 10.995206
v -13.018195 -5.720487 6.00757
v 21.675474 12.2034 -0.557858
v 2.991302 11.854545 8.802627
v 20.22696 -10.529415 -0.557858
v -17.715747 19.686762 -0.557858
v -10.776544 -9.553596 4.81578
v 9.579914 7.330144 9.542294
v 2.406045 -0.585151 11.503589
v -14.401317 -0.502789 6.05811
f 11 20 24
f 7 4 10
f 4 8 10
f 5 9 10
f 5 10 12
f 1 10 13
f 10 8 13
f 7 3 14
f 4 7 14
f 13 8 16
f 2 10 17
f 9 5 18
f 5 12 18
f 12 11 18
f 11 15 18
f 2 3 19
f 3 7 19
f 10 2 19
f 7 10 19
f 10 1 20
f 12 10 20
f 11 12 20
f 8 4 21
f 14 6 21
f 4 14 21
f 6 16 21
f 16 8 21
f 3 2 22
f 10 9 22
f 15 3 22
f 2 17 22
f 17 10 22
f 9 18 22
f 18 15 22
f 11 6 23
f 14 3 23
f 6 14 23
f 3 15 23
f 15 11 23
f 6 11 24
f 1 13 24
f 16 6 24
f 13 16 24
f 20 1 24
