# Generated from Models/Env/Ground/SmallPiles/Colliders/GrassPileF_ConvexHull_0.asset
o GrassPileF_ConvexHull_0
v -12.990244 -30.331408 -0.346239
v -11.860457 37.798395 -0.346239
v -15.868419 35.684847 -0.346239
v -1.604527 -3.456673 18.39763
v 37.327531 2.476506 -0.346239
v -33.562438 -8.686034 -0.346239
v 21.750672 30.612446 -0.346239
v 14.396842 -28.292417 -0.346239
v -8.126548 0.805765 18.313609
v -29.708076 21.849163 -0.346239
v -1.974669 1.973611 18.284227
v 27.133799 -18.281667 -0.346239
v -23.463634 -26.191395 -0.346239
v 34.404809 17.639922 -0.346239
v 4.498836 37.614802 -0.346239
v -7.893066 -3.398402 18.134781
v 3.621352 -31.2007 -0.346239
v -30.565499 -19.114978 -0.346239
v -33.566096 4.141109 -0.346239
v 34.105435 -8.613227 -0.346239
v -21.874776 32.51747 -0.346239
v -7.40749 -7.306712 16.275973
v -6.151036 2.712484 18.281671
v 37.381154 5.964126 -0.346239
f 14 11 24
f 3 2 1
f 1 2 5
f 3 1 6
f 5 2 7
f 1 5 8
f 3 6 10
f 4 8 12
f 8 5 12
f 6 1 13
f 5 7 14
f 7 11 14
f 7 2 15
f 11 7 15
f 4 9 16
f 9 6 16
f 1 8 17
f 8 4 17
f 6 13 18
f 16 6 18
f 13 16 18
f 6 9 19
f 10 6 19
f 9 10 19
f 5 4 20
f 4 12 20
f 12 5 20
f 3 10 21
f 10 9 21
f 13 1 22
f 4 16 22
f 16 13 22
f 1 17 22
f 17 4 22
f 2 3 23
f 9 4 23
f 4 11 23
f 15 2 23
f 11 15 23
f 3 21 23
f 21 9 23
f 4 5 24
f 11 4 24
f 5 14 24
