# Generated from Models/Env/Ground/SmallPiles/Colliders/GrassPileD_ConvexHull_0.asset
o GrassPileD_ConvexHull_0
v 22.815101 1.053816 -0.22027
v 1.22575 27.284401 -0.224516
v 6.348631 27.365318 -0.229113
v 1.980442 4.593598 13.234781
v -28.616076 -15.563314 -0.160149
v 0.070754 -23.929072 -0.220413
v -23.806531 13.573929 -0.220365
v 10.629949 4.149085 11.640713
v -8.393247 -4.807256 10.784952
v 18.940088 -11.838688 -0.220342
v -3.311735 -17.727659 5.648883
v 19.016718 18.899227 -0.228585
v -31.529553 -0.173235 -0.186847
v 3.53453 10.777081 11.639273
v -8.451298 16.174197 6.093985
v -10.047016 2.142614 10.010302
v -15.442362 -23.900908 -0.185111
v 12.209606 0.008283 10.238693
v 10.77633 11.122048 10.157933
v 12.097575 -18.441562 -0.224253
v 6.467388 1.076883 12.449543
v -12.442388 22.662248 -0.221605
v 13.611211 6.800835 9.562062
v 13.211582 25.313117 -0.234109
f 7 22 24
f 1 10 12
f 7 6 13
f 5 9 13
f 3 2 14
f 14 2 15
f 4 14 15
f 9 4 16
f 7 13 16
f 13 9 16
f 15 7 16
f 4 15 16
f 9 5 17
f 6 11 17
f 11 9 17
f 5 13 17
f 13 6 17
f 10 1 18
f 4 8 19
f 3 14 19
f 14 4 19
f 11 6 20
f 12 10 20
f 10 18 20
f 18 11 20
f 8 4 21
f 4 9 21
f 9 11 21
f 18 8 21
f 11 18 21
f 2 3 22
f 15 2 22
f 7 15 22
f 1 12 23
f 18 1 23
f 8 18 23
f 19 8 23
f 12 19 23
f 6 7 24
f 3 19 24
f 19 12 24
f 20 6 24
f 12 20 24
f 22 3 24
