# Generated from Models/Env/Ground/SmallPiles/Colliders/GrassPileB_ConvexHull_0.asset
o GrassPileB_ConvexHull_0
v -10.793854 -4.220171 5.107417
v 9.756789 -1.992713 0.625644
v 10.067229 -2.120656 -0.317815
v -1.365688 27.388441 -1.977948
v -5.19516 -28.817514 -2.74162
v 3.92767 -14.937904 9.301671
v -0.359362 21.879014 5.951717
v 7.680769 -32.079409 0.710098
v -7.223588 -9.426142 9.387643
v -10.309356 -17.231318 -1.022453
v 5.893378 15.635706 4.43218
v -4.610834 25.427037 -1.977948
v 1.115196 -27.310043 4.475771
v 4.120443 20.860974 -1.890448
v 7.912654 -26.471771 5.23061
v 1.642429 0.072417 9.333487
v -2.98718 22.046128 5.249686
v -10.858936 -2.618541 1.079358
v 7.428943 -0.766005 5.319458
v -6.759102 1.451829 8.536946
v 9.249594 -24.809661 0.289529
v 4.484229 -22.3022 7.758915
v -6.632475 13.282931 4.611876
v -2.515489 9.344132 8.516955
f 17 20 24
f 9 1 10
f 5 9 10
f 2 3 11
f 4 7 11
f 4 5 12
f 5 10 12
f 5 8 13
f 9 5 13
f 5 4 14
f 3 5 14
f 11 3 14
f 4 11 14
f 3 2 15
f 13 8 15
f 9 6 16
f 11 7 16
f 7 4 17
f 4 12 17
f 10 1 18
f 1 12 18
f 12 10 18
f 2 11 19
f 15 2 19
f 6 15 19
f 16 6 19
f 11 16 19
f 1 9 20
f 5 3 21
f 8 5 21
f 3 15 21
f 15 8 21
f 6 9 22
f 9 13 22
f 15 6 22
f 13 15 22
f 12 1 23
f 17 12 23
f 1 20 23
f 20 17 23
f 9 16 24
f 16 7 24
f 7 17 24
f 20 9 24
