# Generated from Models/Env/Ground/SmallPiles/Colliders/GrassPileH_ConvexHull_0.asset
o GrassPileH_ConvexHull_0
v -9.858283 45.962336 -0.280859
v 14.53585 -20.200933 -0.704751
v -17.517585 -40.034459 -0.704751
v -4.70884 6.949183 8.143943
v 7.374369 38.887698 -0.700294
v -20.19922 22.089045 -0.704751
v 0.221539 -7.991726 8.045317
v -0.104929 -50.207684 -0.704751
v -4.965257 23.656907 6.836081
v -7.465727 4.185162 8.096592
v -5.322366 -27.235774 5.241736
v 4.908666 20.918412 4.013064
v 14.497902 2.781494 -0.506101
v -20.294628 -26.055051 -0.704751
v 0.180067 46.455641 -0.704751
v -8.504143 27.445122 5.308685
v 0.515282 -19.12821 6.805439
v -7.141676 -16.455831 6.65073
v 7.360734 -39.750573 -0.704751
v -2.584499 23.555807 6.685443
v -9.75267 -47.32934 -0.704751
v -20.791138 -10.94723 -0.716041
v -13.361139 41.390162 -0.704751
v -8.721527 16.896373 6.889268
f 9 16 24
f 7 4 10
f 4 9 10
f 2 5 13
f 7 2 13
f 5 12 13
f 12 7 13
f 5 2 15
f 1 9 15
f 9 1 16
f 2 7 17
f 11 8 17
f 11 17 18
f 7 10 18
f 3 11 18
f 14 3 18
f 10 14 18
f 17 7 18
f 2 17 19
f 17 8 19
f 4 7 20
f 9 4 20
f 12 5 20
f 7 12 20
f 5 15 20
f 15 9 20
f 11 3 21
f 8 11 21
f 10 6 22
f 3 14 22
f 14 10 22
f 15 2 22
f 2 19 22
f 19 8 22
f 21 3 22
f 8 21 22
f 1 15 23
f 16 1 23
f 6 16 23
f 22 6 23
f 15 22 23
f 6 10 24
f 10 9 24
f 16 6 24
