# Generated from Models/Env/Ground/SmallPiles/Colliders/GrassPileA_ConvexHull_0.asset
o GrassPileA_ConvexHull_0
v -6.942436 5.748217 7.328802
v 13.97564 -1.379199 0.009527
v 13.536783 -0.933744 1.357557
v -4.373552 -12.808885 -0.463852
v -4.313499 17.202831 -0.554482
v 7.546765 3.130086 10.046113
v -14.527314 4.403572 -0.841078
v -0.932719 -7.065611 8.310459
v 8.661092 -8.85085 5.538502
v 2.413076 14.457866 5.722537
v -11.28756 -3.96049 5.503036
v 11.348691 7.036615 -0.314532
v 9.653911 -8.926327 -0.573754
v 10.248145 8.310941 6.866782
v -2.279268 3.111469 9.990377
v 2.641683 16.296619 -0.504471
v -3.873402 14.625064 4.626416
v 1.81675 10.55478 8.720981
v -13.212148 -2.626223 -0.468581
v -0.554493 -5.220722 9.579092
v 11.276498 -0.51029 6.638886
v -1.408749 -10.031442 5.756526
v -12.691682 1.259319 4.40198
v -0.345045 -13.263287 -0.467112
f 9 22 24
f 2 3 9
f 2 9 13
f 12 2 13
f 3 2 14
f 2 12 14
f 1 11 15
f 7 5 16
f 5 10 16
f 13 7 16
f 12 13 16
f 10 14 16
f 14 12 16
f 5 7 17
f 10 5 17
f 6 14 18
f 14 10 18
f 15 6 18
f 1 15 18
f 17 1 18
f 10 17 18
f 7 4 19
f 4 11 19
f 9 6 20
f 8 9 20
f 11 8 20
f 6 15 20
f 15 11 20
f 9 3 21
f 6 9 21
f 3 14 21
f 14 6 21
f 9 8 22
f 11 4 22
f 8 11 22
f 11 1 23
f 1 17 23
f 17 7 23
f 7 19 23
f 19 11 23
f 4 7 24
f 7 13 24
f 13 9 24
f 22 4 24
