# Generated from Models/Env/Ground/SmallPiles/Colliders/GrassPileG_ConvexHull_0.asset
o GrassPileG_ConvexHull_0
v -19.048995 21.097721 -0.704751
v 14.21073 -25.336359 -0.704751
v 9.820173 -37.782591 -0.704751
v -0.839338 -2.240648 8.207652
v 3.206831 43.067194 -0.704751
v -12.535427 -41.492517 -0.704751
v -0.120107 25.255975 5.355724
v 2.613607 -29.222961 5.207507
v -7.036652 2.294603 6.710668
v -8.251553 46.871521 -0.704751
v 10.076932 24.106978 -0.704751
v -20.601779 -0.393475 -0.704751
v 3.854109 -49.08343 -0.389767
v -4.79268 15.915844 6.739805
v 3.135567 18.268073 5.368439
v 14.482257 -18.817934 -0.089433
v -0.836843 -29.757076 5.3338
v -3.381531 -5.98237 7.983431
v 2.374911 -16.013734 6.91538
v -6.208914 -48.09966 -0.704751
v -14.887233 -33.742253 -0.704751
v -1.995632 7.811276 8.168689
v -1.681232 48.043167 -0.704751
v -11.148184 16.071192 4.015762
f 14 10 24
f 3 2 8
f 3 1 10
f 2 3 11
f 3 5 11
f 1 3 12
f 3 8 13
f 7 10 14
f 5 7 15
f 11 5 15
f 11 15 16
f 2 11 16
f 13 8 17
f 9 12 18
f 6 17 18
f 18 17 19
f 8 2 19
f 15 4 19
f 16 15 19
f 2 16 19
f 17 8 19
f 4 18 19
f 6 3 20
f 3 13 20
f 17 6 20
f 13 17 20
f 3 6 21
f 12 3 21
f 6 18 21
f 18 12 21
f 7 14 22
f 14 9 22
f 4 15 22
f 15 7 22
f 18 4 22
f 9 18 22
f 5 3 23
f 7 5 23
f 10 7 23
f 3 10 23
f 10 1 24
f 1 12 24
f 12 9 24
f 9 14 24
