# Generated from Models/Arch/Ruins/RuinedWalls/Colliders/RuinedWallRubbleACH2.asset
o RuinedWallRubbleACH2
v -39.459341 -53.046254 15.889161
v -2.778812 -1.95103 -1.142194
v -5.398429 -3.261421 0.171462
v 6.395746 -22.922279 21.129931
v -30.284785 -21.606887 19.816275
v -38.149534 -53.046254 -1.144503
v -52.563326 -37.326569 0.166845
v 3.77023 -15.054935 -1.142194
v -43.388767 -46.494299 22.44128
v -6.708237 -7.197594 21.129931
v -51.247614 -34.705789 11.957427
v -6.708237 -32.080007 1.4805
v -35.529917 -51.730862 21.127624
v 1.156513 -1.95103 1.482809
v 7.705553 -21.606887 8.03262
v -48.628 -43.868518 -1.144503
v 6.395746 -18.986105 21.129931
v -51.247614 -39.942349 13.268775
v -46.008386 -41.252738 21.127624
v 5.085937 -8.507984 -1.142194
v -42.073061 -53.046254 8.028002
v 3.77613 -25.538056 17.19589
v -36.839727 -53.046254 0.166845
v -2.778812 -7.197594 19.816275
f 17 14 24
f 3 2 7
f 2 3 10
f 3 5 10
f 5 3 11
f 3 7 11
f 6 8 12
f 9 1 13
f 4 9 13
f 2 10 14
f 12 8 15
f 7 2 16
f 9 4 17
f 10 9 17
f 4 15 17
f 11 7 18
f 7 16 18
f 10 5 19
f 9 10 19
f 5 11 19
f 18 9 19
f 11 18 19
f 8 6 20
f 2 14 20
f 15 8 20
f 16 2 20
f 6 16 20
f 14 17 20
f 17 15 20
f 6 1 21
f 1 9 21
f 16 6 21
f 9 18 21
f 18 16 21
f 4 13 22
f 15 4 22
f 12 15 22
f 1 6 23
f 6 12 23
f 13 1 23
f 12 22 23
f 22 13 23
f 14 10 24
f 10 17 24
