# Generated from Models/Arch/Ruins/RuinedWalls/Colliders/RuinedWallRubbleBCH4.asset
o RuinedWallRubbleBCH4
v -107.957491 -105.421135 -0.219492
v -70.444721 -87.757921 21.849611
v -70.444721 -87.757921 10.819273
v -88.107954 -138.51461 13.021409
v -105.749589 -125.268926 26.267928
v -92.515122 -74.519155 21.849611
v -77.068436 -72.313844 -2.427246
v -88.107954 -134.103987 -0.219492
v -112.373304 -131.88485 -0.219492
v -88.107954 -136.309299 26.267928
v -90.30722 -67.896313 -0.216684
v -114.585523 -129.679548 15.226353
v -85.891407 -76.724461 24.060174
v -105.749589 -101.010522 21.852422
v -105.749589 -134.103987 26.267928
v -70.444721 -78.929768 10.819273
v -83.69215 -67.896313 1.98826
v -88.107954 -138.51461 1.991069
v -88.099309 -83.347308 -2.427246
v -74.864852 -94.38768 4.198822
v -105.749589 -98.805211 13.021409
v -92.515122 -76.724461 24.060174
v -88.107954 -120.858304 26.267928
v -70.444721 -83.347308 21.849611
f 13 23 24
f 3 2 4
f 4 2 10
f 1 9 12
f 12 5 14
f 4 10 15
f 10 5 15
f 5 12 15
f 12 9 15
f 2 3 16
f 3 7 16
f 11 6 17
f 7 11 17
f 6 13 17
f 16 7 17
f 3 4 18
f 9 8 18
f 4 15 18
f 15 9 18
f 7 8 19
f 8 9 19
f 9 1 19
f 1 11 19
f 11 7 19
f 7 3 20
f 8 7 20
f 3 18 20
f 18 8 20
f 11 1 21
f 6 11 21
f 1 12 21
f 14 6 21
f 12 14 21
f 13 6 22
f 14 5 22
f 6 14 22
f 10 2 23
f 5 10 23
f 22 5 23
f 13 22 23
f 2 16 24
f 17 13 24
f 16 17 24
f 23 2 24
