# Generated from Models/Arch/Ruins/RuinedWalls/Colliders/RuinedWallRubbleBCH5.asset
o RuinedWallRubbleBCH5
v -125.627097 -85.550563 -0.219925
v -130.037419 -54.648067 1.987396
v -130.037419 -54.648067 17.438643
v -143.283507 -78.922981 17.438643
v -112.38101 -67.894154 10.81668
v -125.627097 -85.550563 17.438643
v -143.283507 -74.509637 -0.219925
v -112.38101 -65.688993 -0.219925
v -136.655925 -83.34238 -0.219925
v -143.283507 -72.304476 17.438643
v -119.008592 -70.099315 17.438643
v -132.24258 -56.85625 -0.219925
v -116.800409 -61.272622 13.024001
v -123.421937 -56.85625 -0.219925
v -114.589194 -72.304476 -0.219925
v -130.037419 -85.550563 17.438643
v -143.283507 -78.922981 -0.219925
v -127.832258 -54.648067 17.438643
v -116.800409 -74.509637 15.231322
v -134.450764 -59.064438 6.402038
v -132.24258 -85.550563 6.402038
v -143.283507 -72.304476 6.402038
v -123.421937 -83.34238 17.438643
v -134.450764 -59.064438 15.231322
f 20 10 24
f 3 4 6
f 1 7 8
f 7 1 9
f 4 3 10
f 7 4 10
f 3 6 11
f 8 7 12
f 5 8 13
f 11 5 13
f 12 2 14
f 8 12 14
f 13 8 14
f 1 8 15
f 8 5 15
f 6 4 16
f 1 6 16
f 4 7 17
f 9 4 17
f 7 9 17
f 2 3 18
f 3 11 18
f 11 13 18
f 14 2 18
f 13 14 18
f 5 11 19
f 15 5 19
f 3 2 20
f 2 12 20
f 4 9 21
f 9 1 21
f 16 4 21
f 1 16 21
f 7 10 22
f 12 7 22
f 10 20 22
f 20 12 22
f 6 1 23
f 11 6 23
f 1 15 23
f 19 11 23
f 15 19 23
f 10 3 24
f 3 20 24
