# Generated from Models/Arch/Ruins/RuinedWalls/Colliders/RuinedWallRubbleBCH3.asset
o RuinedWallRubbleBCH3
v -57.197986 -85.545804 -2.425303
v -21.880849 -85.545804 10.815383
v -21.880849 -85.545804 8.607414
v -48.368702 -56.855387 -0.217333
v -21.880849 -70.098015 -9.049211
v -28.508 -63.482537 15.231322
v -54.988939 -89.960012 13.023352
v -28.504541 -96.587163 -6.841241
v -54.988939 -94.37422 -9.049211
v -52.779887 -63.482537 13.020976
v -50.574294 -63.482537 -9.046834
v -24.089899 -59.064433 -9.049211
v -37.333825 -89.960012 15.231322
v -24.089899 -59.064433 4.193852
v -26.295492 -96.587163 1.988259
v -52.779887 -56.855387 4.191475
v -24.089899 -89.960012 -9.049211
v -46.15965 -63.482537 15.231322
v -21.880849 -74.520004 13.023352
v -57.197986 -92.165173 6.401821
v -46.15965 -59.064433 -9.049211
v -26.295492 -89.960012 13.023352
v -24.089899 -65.687698 15.231322
v -32.919183 -96.587163 1.988259
f 7 20 24
f 2 3 5
f 9 1 11
f 5 9 12
f 5 12 14
f 12 4 14
f 3 2 15
f 11 1 16
f 6 14 16
f 14 4 16
f 5 3 17
f 9 5 17
f 8 9 17
f 3 15 17
f 15 8 17
f 10 7 18
f 13 6 18
f 7 13 18
f 16 10 18
f 6 16 18
f 2 5 19
f 5 14 19
f 1 9 20
f 7 10 20
f 16 1 20
f 10 16 20
f 9 11 21
f 4 12 21
f 12 9 21
f 16 4 21
f 11 16 21
f 15 2 22
f 13 15 22
f 2 19 22
f 22 19 23
f 6 13 23
f 14 6 23
f 19 14 23
f 13 22 23
f 9 8 24
f 13 7 24
f 8 15 24
f 15 13 24
f 20 9 24
