# Generated from Models/Arch/Ruins/RuinedWalls/Colliders/RuinedWallRubbleBCH2.asset
o RuinedWallRubbleBCH2
v -48.375014 -28.157187 10.814088
v -94.716791 2.739257 -0.217117
v -96.924346 -1.674088 -0.217117
v -94.716791 -3.882273 19.643802
v -41.746737 -10.503804 1.990853
v -92.509237 -17.119286 -2.425086
v -50.576956 -8.295619 17.437994
v -96.924346 -14.914126 19.643802
v -43.95991 -21.535657 -2.427246
v -54.997678 -28.157187 17.437994
v -88.094128 2.739257 13.022056
v -61.609106 -25.952026 1.990853
v -96.924346 -17.119286 -0.217117
v -54.997678 -6.090458 -0.214956
v -83.684641 -3.882273 -2.425086
v -48.375014 -19.330496 17.437994
v -88.094128 -19.327471 17.435835
v -43.95991 -14.914126 -2.427246
v -88.094128 2.739257 -0.217117
v -99.1319 -10.500779 4.196661
v -94.716791 2.739257 10.814088
v -74.860046 -1.674088 17.435835
v -77.061978 -21.535657 -2.425086
v -54.997678 -28.157187 6.406791
f 13 12 24
f 3 2 6
f 5 1 9
f 3 6 13
f 7 5 14
f 11 7 14
f 6 2 15
f 1 5 16
f 7 4 16
f 5 7 16
f 4 8 16
f 10 1 16
f 8 10 16
f 10 8 17
f 13 10 17
f 8 13 17
f 5 9 18
f 9 6 18
f 14 5 18
f 6 15 18
f 15 14 18
f 2 11 19
f 11 14 19
f 15 2 19
f 14 15 19
f 8 4 20
f 3 13 20
f 13 8 20
f 2 3 21
f 11 2 21
f 4 11 21
f 3 20 21
f 20 4 21
f 4 7 22
f 11 4 22
f 7 11 22
f 6 9 23
f 9 12 23
f 12 13 23
f 13 6 23
f 9 1 24
f 1 10 24
f 12 9 24
f 10 13 24
