# Generated from Models/Arch/Ruins/RuinedWalls/Colliders/RuinedWallRubbleACH0.asset
o RuinedWallRubbleACH0
v -86.631686 -28.157072 -1.144375
v -68.286159 -37.323551 19.820638
v -68.286159 -32.081753 19.820638
v -61.73558 -32.081753 -2.454824
v -65.668854 -21.603158 17.195378
v -86.631686 -38.635668 13.26621
v -82.698416 -22.913608 18.508008
v -65.668854 -21.603158 -1.144375
v -86.631686 -38.635668 -1.144375
v -61.73558 -38.635668 17.195378
v -82.698416 -21.603158 -1.144375
v -63.049109 -38.635668 1.478705
v -86.631686 -28.157072 17.195378
v -61.73558 -28.157072 17.195378
v -78.770018 -37.323551 19.820638
v -78.770018 -21.603158 19.820638
v -84.007069 -22.913608 -2.454824
v -86.631686 -37.323551 -2.454824
v -84.007069 -37.323551 18.508008
v -61.73558 -28.157072 -1.144375
v -65.668854 -22.913608 -2.454824
v -70.908341 -22.913608 19.820638
v -82.698416 -21.603158 17.195378
v -74.839179 -38.635668 19.820638
f 15 19 24
f 6 1 9
f 6 9 10
f 3 2 10
f 5 8 11
f 10 9 12
f 4 10 12
f 1 6 13
f 8 5 14
f 3 10 14
f 10 4 14
f 2 3 15
f 5 11 16
f 15 3 16
f 11 8 17
f 1 13 17
f 9 1 18
f 4 12 18
f 12 9 18
f 17 4 18
f 1 17 18
f 13 6 19
f 7 13 19
f 15 16 19
f 16 7 19
f 14 4 20
f 8 14 20
f 4 17 21
f 17 8 21
f 20 4 21
f 8 20 21
f 3 14 22
f 14 5 22
f 16 3 22
f 5 16 22
f 13 7 23
f 7 16 23
f 16 11 23
f 11 17 23
f 17 13 23
f 6 10 24
f 10 2 24
f 2 15 24
f 19 6 24
