# Generated from Models/Arch/Ruins/RuinedWalls/Colliders/RuinedWallCCH0.asset
o RuinedWallCCH0
v -68.761067 6.13967 30.792256
v -16.867846 -15.200959 100.961318
v -47.393271 -27.399184 94.83891
v 19.719664 -27.402768 0.291912
v -196.838868 -27.402768 -2.764214
v -196.838868 3.083844 -2.764214
v -96.169452 3.087426 94.83891
v -1.648126 3.083844 0.291912
v -16.867846 3.087426 88.746971
v -111.432172 -30.455012 67.394696
v -196.838868 -15.200959 18.59821
v 22.772214 -6.065722 9.439986
v -87.033327 -30.455012 -2.764214
v -96.169452 -15.200959 94.83891
v -196.838868 3.083844 15.552238
v 16.667124 -6.065722 -2.764214
v -16.867846 6.13967 67.404848
v 22.772214 -27.402768 9.439986
v -196.838868 -27.402768 12.496112
v -29.078016 -27.399184 91.803097
v -62.634482 -30.447846 58.256778
v -29.078016 3.087426 97.895036
v -62.634482 6.13967 64.348722
v -129.725927 -30.455012 -2.764214
f 10 19 24
f 6 1 8
f 6 5 11
f 9 2 12
f 5 6 13
f 3 2 14
f 2 7 14
f 10 3 14
f 7 11 14
f 1 6 15
f 11 7 15
f 6 11 15
f 6 8 16
f 12 4 16
f 8 12 16
f 13 6 16
f 4 13 16
f 8 1 17
f 12 8 17
f 9 12 17
f 12 2 18
f 4 12 18
f 11 5 19
f 10 14 19
f 14 11 19
f 2 3 20
f 3 10 20
f 18 2 20
f 18 20 21
f 13 4 21
f 10 13 21
f 4 18 21
f 20 10 21
f 7 2 22
f 2 9 22
f 17 7 22
f 9 17 22
f 1 15 23
f 15 7 23
f 17 1 23
f 7 17 23
f 5 13 24
f 13 10 24
f 19 5 24
