# Generated from Models/Arch/Ruins/RuinedWalls/Colliders/RuinedWallRubbleBCH1.asset
o RuinedWallRubbleBCH1
v -28.490496 -39.193711 32.88989
v -4.224441 0.529131 -0.214739
v -4.224441 0.529131 4.203359
v 15.643609 -25.951179 -2.427246
v -35.124776 -30.362189 -0.218197
v 0.188472 -1.676375 30.677384
v 13.432183 -28.156685 30.680841
v -17.463183 -48.025234 -2.427246
v -35.124776 -23.75043 32.88989
v -2.017985 -39.193711 30.680841
v -32.913349 -19.33942 -0.218197
v 15.643609 -19.33942 1.987396
v -28.490496 -21.544924 -2.427246
v 2.394929 0.529131 -0.214739
v -21.876095 -48.025234 6.405495
v -8.637355 -3.881878 30.680841
v 11.225726 -17.133917 30.680841
v 2.394929 -6.092135 -2.427246
v -17.463183 -14.923659 32.88989
v -15.256725 -48.025234 6.405495
v -35.124776 -21.544924 19.645964
v -35.124776 -30.362189 32.88989
v 4.606355 -34.773196 1.987396
v -13.04033 -36.983454 32.88989
f 17 19 24
f 3 2 11
f 7 4 12
f 4 8 13
f 8 5 13
f 11 2 13
f 5 11 13
f 2 3 14
f 3 6 14
f 12 4 14
f 5 8 15
f 6 3 16
f 7 12 17
f 14 6 17
f 12 14 17
f 13 2 18
f 4 13 18
f 2 14 18
f 14 4 18
f 9 1 19
f 6 16 19
f 16 9 19
f 17 6 19
f 10 1 20
f 1 15 20
f 15 8 20
f 5 9 21
f 3 11 21
f 11 5 21
f 16 3 21
f 9 16 21
f 1 9 22
f 9 5 22
f 15 1 22
f 5 15 22
f 4 7 23
f 8 4 23
f 7 10 23
f 20 8 23
f 10 20 23
f 1 10 24
f 10 7 24
f 7 17 24
f 19 1 24
