# Generated from Models/Arch/Ruins/RuinedWalls/Colliders/RuinedWallRubbleBCH0.asset
o RuinedWallRubbleBCH0
v -81.480241 -52.437936 13.024001
v -105.759051 -32.579172 -2.427246
v -105.759051 -48.024155 -2.427246
v -79.271194 -36.99295 -2.427246
v -101.343547 -32.579172 15.231322
v -81.480241 -32.579172 13.024001
v -103.550004 -52.437936 13.024001
v -85.898344 -54.648067 -2.427246
v -85.898344 -54.648067 15.231322
v -99.1319 -54.648067 -0.219925
v -79.271194 -52.437936 -2.427246
v -79.271194 -32.579172 1.987396
v -105.759051 -32.579172 8.609359
v -99.1319 -54.648067 15.231322
v -83.686697 -32.579172 15.231322
v -105.759051 -52.437936 8.609359
v -79.271194 -52.437936 8.609359
v -79.271194 -32.579172 8.609359
v -81.480241 -34.784981 -2.427246
v -105.759051 -52.437936 1.987396
v -96.925444 -54.648067 -2.427246
v -83.686697 -54.648067 1.987396
v -101.343547 -54.648067 10.81668
v -101.343547 -52.437936 15.231322
f 7 14 24
f 3 2 4
f 2 5 6
f 3 4 8
f 8 9 10
f 8 4 11
f 2 6 12
f 11 4 12
f 2 3 13
f 5 2 13
f 7 5 13
f 9 5 14
f 10 9 14
f 6 5 15
f 1 6 15
f 5 9 15
f 9 1 15
f 13 3 16
f 7 13 16
f 6 1 17
f 1 9 17
f 11 12 17
f 17 12 18
f 12 6 18
f 6 17 18
f 4 2 19
f 2 12 19
f 12 4 19
f 16 3 20
f 3 8 21
f 8 10 21
f 20 3 21
f 10 20 21
f 9 8 22
f 8 11 22
f 17 9 22
f 11 17 22
f 14 7 23
f 10 14 23
f 7 16 23
f 20 10 23
f 16 20 23
f 5 7 24
f 14 5 24
