# Generated from Models/Arch/Ruins/RuinedWalls/Colliders/RuinedWallRubbleACH1.asset
o RuinedWallRubbleACH1
v -49.94679 -13.739562 14.577044
v -59.111859 28.190721 -2.454825
v -59.111859 28.190721 14.578839
v -76.149113 4.606988 14.578839
v -34.218831 5.920388 -2.454825
v -74.835716 4.606988 -2.454825
v -35.532229 9.848273 13.268005
v -55.183972 -13.739562 0.168639
v -53.878783 -13.739562 15.889674
v -76.149113 8.534874 -1.14399
v -55.183972 28.190721 14.578839
v -34.218831 8.534874 -2.454825
v -38.15082 3.297693 14.578839
v -72.217125 13.772055 14.578839
v -47.324097 -8.498277 -1.142195
v -56.493268 28.190721 -2.454825
v -61.73045 -4.566287 -2.454825
v -34.218831 4.606988 1.477678
v -59.111859 -11.116868 9.335501
v -35.532229 4.606988 13.268005
v -47.324097 -5.875583 15.889674
v -65.662439 21.636034 -1.14399
v -76.149113 4.606988 4.099347
v -57.802563 -7.184877 15.889674
f 21 3 24
f 2 5 6
f 8 1 9
f 2 6 10
f 2 3 11
f 5 2 12
f 11 7 12
f 7 11 13
f 10 4 14
f 1 8 15
f 2 11 16
f 12 2 16
f 11 12 16
f 6 5 17
f 8 6 17
f 5 15 17
f 15 8 17
f 5 12 18
f 12 7 18
f 1 15 18
f 15 5 18
f 9 4 19
f 8 9 19
f 13 1 20
f 7 13 20
f 18 7 20
f 1 18 20
f 9 1 21
f 11 3 21
f 1 13 21
f 13 11 21
f 3 2 22
f 2 10 22
f 14 3 22
f 10 14 22
f 6 8 23
f 4 10 23
f 10 6 23
f 19 4 23
f 8 19 23
f 4 9 24
f 3 14 24
f 14 4 24
f 9 21 24
