# Generated from Models/Arch/Ruins/RuinedWalls/Colliders/RuinedWallERoundedCH0.asset
o RuinedWallERoundedCH0
v -195.834508 -28.854842 4.772872
v -130.322714 -3.219922 33.261813
v -133.171998 -6.070601 33.261813
v -173.040235 -74.444513 -0.926254
v -130.322714 33.817712 -0.926254
v -187.286656 -11.77196 30.410576
v -204.389606 -71.593835 24.714796
v -136.021282 30.967034 33.261813
v -187.286656 -6.070601 -0.926254
v -173.040235 -74.444513 24.714796
v -130.322714 -3.219922 -0.926254
v -204.389606 -71.593835 -0.926254
v -167.35616 -28.854842 33.261813
v -167.35616 13.873556 1.924982
v -155.96627 19.564317 33.261813
v -130.322714 30.967034 33.261813
v -204.389606 -60.191119 21.863559
v -150.267702 25.265673 -0.926254
v -181.588088 -3.219922 30.410576
v -204.389606 -60.191119 -0.926254
v -144.569134 28.116356 33.261813
v -190.13594 -74.444513 21.863559
v -173.040235 -20.313401 33.261813
v -158.815554 -28.854842 33.261813
f 13 10 24
f 3 2 8
f 5 4 9
f 1 6 9
f 2 3 10
f 4 2 10
f 2 4 11
f 4 5 11
f 5 2 11
f 9 4 12
f 3 8 13
f 7 10 13
f 13 8 15
f 2 5 16
f 8 2 16
f 5 8 16
f 6 1 17
f 7 6 17
f 12 7 17
f 5 9 18
f 9 14 18
f 9 6 19
f 14 9 19
f 6 15 19
f 15 14 19
f 1 9 20
f 9 12 20
f 17 1 20
f 12 17 20
f 8 5 21
f 15 8 21
f 14 15 21
f 5 18 21
f 18 14 21
f 4 10 22
f 10 7 22
f 7 12 22
f 12 4 22
f 6 7 23
f 7 13 23
f 15 6 23
f 13 15 23
f 10 3 24
f 3 13 24
