# Generated from Models/Arch/Ruins/RuinedWalls/Colliders/RuinedWallBCH0.asset
o RuinedWallBCH0
v -391.609655 -4.367892 1.017276
v -302.616231 -21.031574 117.773511
v -302.616231 -4.367892 117.773511
v 3.11986 -43.273402 -4.550529
v -2.444687 1.199367 56.611491
v -397.213382 -43.262513 -4.538556
v -130.389865 -43.262513 112.205707
v -191.560591 6.750299 -4.538556
v -291.526354 -48.824329 101.082076
v -119.26079 1.193926 112.205707
v 3.11986 1.199367 -4.550529
v -397.213382 1.193926 39.932028
v -2.444687 -43.273402 56.611491
v -341.528788 -37.700698 101.082076
v -336.003458 1.193926 106.637903
v -52.486337 6.761183 67.711178
v -308.180778 6.750299 -4.538556
v -235.998515 -48.824329 34.376199
v -397.213382 -43.262513 23.252566
v -308.180778 6.750299 39.932028
v -330.438929 -26.582506 117.773511
v -347.132552 -48.824329 62.179296
v -102.567177 -21.031574 106.637903
v -152.608837 6.750299 73.290954
f 16 20 24
f 3 2 10
f 2 7 10
f 5 4 11
f 4 6 11
f 1 6 12
f 4 5 13
f 7 9 13
f 3 10 15
f 10 5 16
f 5 11 16
f 11 8 16
f 6 1 17
f 11 6 17
f 8 11 17
f 1 12 17
f 16 8 17
f 6 4 18
f 4 13 18
f 13 9 18
f 12 6 19
f 14 12 19
f 12 15 20
f 17 12 20
f 16 17 20
f 2 3 21
f 7 2 21
f 9 7 21
f 14 9 21
f 12 14 21
f 15 12 21
f 3 15 21
f 9 14 22
f 6 18 22
f 18 9 22
f 19 6 22
f 14 19 22
f 10 7 23
f 5 10 23
f 13 5 23
f 7 13 23
f 15 10 24
f 10 16 24
f 20 15 24
