# Generated from Models/Arch/Ruins/RuinedWalls/Colliders/RuinedWallDCH0.asset
o RuinedWallDCH0
v -36.358859 -31.549924 -2.55282
v -18.222113 -3.330893 118.453566
v -18.222113 -1.312541 118.453566
v -141.227902 -17.435671 33.751466
v -16.203762 8.779221 -2.55282
v -16.203762 -39.623333 112.400881
v -141.227902 -5.344508 -0.527359
v 3.96555 -15.422056 -2.55282
v -139.181129 -27.517957 3.511716
v -18.222113 -37.604981 -2.55282
v -26.281311 2.728902 114.414491
v -2.075293 -15.422056 114.414491
v -34.340507 -21.467638 116.416255
v -139.181129 -27.517957 33.751466
v -2.075293 2.719426 15.61709
v -112.985184 -5.344508 55.924913
v -4.107859 -33.568276 112.400881
v -24.262956 8.779221 15.61709
v -141.227902 -5.344508 19.644321
v -4.093648 -31.549924 -2.55282
v -24.262956 -39.623333 110.375416
v -36.358859 -3.330893 116.416255
v -112.985184 -25.499605 57.950373
v -141.227902 -25.499605 -0.527359
f 9 14 24
f 5 1 7
f 1 5 8
f 1 8 10
f 3 2 12
f 6 2 13
f 8 5 15
f 11 3 15
f 5 11 15
f 3 12 15
f 12 8 15
f 2 6 17
f 12 2 17
f 8 12 17
f 5 7 18
f 11 5 18
f 11 18 19
f 7 4 19
f 4 16 19
f 16 11 19
f 18 7 19
f 10 8 20
f 6 10 20
f 17 6 20
f 8 17 20
f 10 6 21
f 9 10 21
f 6 13 21
f 14 9 21
f 2 3 22
f 3 11 22
f 13 2 22
f 11 16 22
f 22 16 23
f 4 14 23
f 16 4 23
f 21 13 23
f 14 21 23
f 13 22 23
f 4 7 24
f 7 1 24
f 1 10 24
f 10 9 24
f 14 4 24
