# Generated from Models/Arch/Ruins/RuinedWalls/Colliders/RuinedWallERoundedCH1.asset
o RuinedWallERoundedCH1
v -118.915628 11.035981 -3.737617
v -110.365842 11.035981 127.266194
v -110.365842 22.413601 127.266194
v 0.731268 -3.208492 -0.903093
v -59.083817 45.20732 -0.903093
v -164.475487 -11.764155 33.277951
v -42.000963 36.658072 95.932498
v -141.703921 30.962847 95.919676
v -16.368318 -20.30699 19.041191
v -130.293043 33.810461 -3.737617
v -153.098063 -3.214905 98.767027
v -70.477963 45.20732 95.932498
v -22.073757 -0.36088 67.433341
v -24.918108 -20.30699 -0.903093
v -170.197653 8.188369 50.374882
v -24.918108 33.810461 58.904111
v -110.365842 42.353296 -3.737617
v -61.9449 16.718377 118.724143
v 0.731268 -3.208492 36.138128
v -130.293043 -0.36088 -0.87744
v -121.759984 30.962847 127.266194
v -24.918108 30.962847 -0.903093
v -158.786775 22.413601 95.919676
v -155.942419 -11.764155 61.751462
f 14 9 24
f 9 2 11
f 2 9 13
f 1 4 14
f 4 9 14
f 10 6 15
f 6 11 15
f 12 7 16
f 5 12 16
f 4 1 17
f 1 10 17
f 10 8 17
f 12 5 17
f 8 12 17
f 3 2 18
f 2 13 18
f 13 7 18
f 9 4 19
f 7 13 19
f 13 9 19
f 4 16 19
f 16 7 19
f 10 1 20
f 6 10 20
f 1 14 20
f 14 6 20
f 2 3 21
f 11 2 21
f 7 12 21
f 12 8 21
f 3 18 21
f 18 7 21
f 16 4 22
f 5 16 22
f 4 17 22
f 17 5 22
f 8 10 23
f 10 15 23
f 15 11 23
f 11 21 23
f 21 8 23
f 11 6 24
f 9 11 24
f 6 14 24
