# Generated from Models/Env/Trees/TreeLogs/Colliders/TreeLogBirchBCH0.asset
o TreeLogBirchBCH0
v -96.674354 -28.41604 17.163007
v -77.646205 -5.824434 6.462914
v -77.646205 -5.824434 6.066232
v -80.816631 -0.666227 6.066232
v -80.42173 -5.030864 3.68614
v -93.50207 -26.434907 18.353052
v -85.970902 -20.08914 10.030103
v -78.042974 -3.046938 8.44485
v -84.778736 -20.08914 12.405772
v -81.610169 -1.859376 4.084296
v -95.087278 -28.41604 15.577753
v -95.878957 -26.434907 17.95637
v -80.42173 -0.666227 7.254804
v -84.778736 -18.108009 13.595818
v -94.295608 -29.212403 17.95637
v -96.674354 -27.625264 16.371117
v -87.554261 -20.485925 10.030103
v -79.231423 -4.636873 3.68614
v -96.674354 -27.228478 17.561164
v -84.778736 -20.08914 11.2172
v -77.646205 -2.652947 7.254804
v -87.554261 -16.126877 9.238213
v -94.690509 -27.228478 18.751209
v -94.295608 -28.41604 15.577753
f 20 15 24
f 3 2 9
f 2 8 14
f 8 6 14
f 9 2 14
f 9 14 15
f 1 11 15
f 14 6 15
f 11 1 16
f 5 7 17
f 3 7 18
f 7 5 18
f 10 4 18
f 5 10 18
f 4 10 19
f 13 4 19
f 12 13 19
f 10 16 19
f 16 1 19
f 7 3 20
f 3 9 20
f 9 15 20
f 2 3 21
f 8 2 21
f 4 13 21
f 13 8 21
f 3 18 21
f 18 4 21
f 10 5 22
f 16 10 22
f 11 16 22
f 5 17 22
f 17 11 22
f 6 8 23
f 8 13 23
f 13 12 23
f 1 15 23
f 15 6 23
f 12 19 23
f 19 1 23
f 15 11 24
f 17 7 24
f 11 17 24
f 7 20 24
