# Generated from Models/Env/Trees/TreeLogs/Colliders/TreeLogDarkACH0.asset
o TreeLogDarkACH0
v 33.40541 -15.918592 10.718302
v 35.488384 -9.675565 13.263645
v 35.488384 -9.675565 13.726225
v 21.150408 -19.849347 11.875136
v 34.79406 -11.294044 6.325719
v 22.077803 -21.238069 12.800296
v 33.407039 -10.369361 9.795452
v 37.799543 -11.294044 8.871062
v 36.18108 -9.907585 14.188805
v 22.077803 -21.238069 11.875136
v 31.322434 -17.306183 11.875136
v 32.01839 -16.844408 10.257262
v 21.614919 -19.618458 12.800296
v 35.023873 -14.533266 11.180882
v 33.63848 -10.138473 11.412556
v 35.256943 -11.526064 6.325719
v 37.799543 -10.601381 10.949207
v 35.023873 -14.533266 9.564547
v 21.150408 -20.774029 11.643461
v 33.407039 -10.601381 8.871062
v 21.385109 -20.774029 13.031971
v 37.799543 -10.832268 8.871062
v 28.32021 -18.693774 10.950746
v 35.718197 -9.675565 14.188805
f 13 21 24
f 9 6 11
f 1 11 12
f 11 1 14
f 9 11 14
f 3 2 15
f 2 7 15
f 7 4 15
f 4 13 15
f 14 8 17
f 9 14 17
f 1 12 18
f 14 1 18
f 8 14 18
f 16 8 18
f 12 16 18
f 4 5 19
f 10 6 19
f 5 16 19
f 16 10 19
f 5 4 20
f 4 7 20
f 7 5 20
f 6 9 21
f 13 4 21
f 4 19 21
f 19 6 21
f 7 2 22
f 5 7 22
f 16 5 22
f 8 16 22
f 2 17 22
f 17 8 22
f 6 10 23
f 11 6 23
f 12 11 23
f 10 16 23
f 16 12 23
f 2 3 24
f 3 15 24
f 15 13 24
f 17 2 24
f 9 17 24
f 21 9 24
