# Generated from Models/Env/Trees/TreeLogs/Colliders/TreeLogBirchCCH0.asset
o TreeLogBirchCCH0
v -44.18109 -13.11801 18.562832
v -49.38204 -2.035321 16.073711
v -51.417473 -3.84607 12.909541
v -43.506864 -3.392674 13.814253
v -36.040958 -15.603186 19.692561
v -45.767039 -5.202006 11.551078
v -44.182685 -9.272649 20.370398
v -49.834715 -8.141993 17.882205
v -45.993377 -2.262019 16.299657
v -49.38204 -7.690015 14.040199
v -36.268889 -15.151208 20.824148
v -38.079578 -16.281863 19.918507
v -45.762257 -11.987356 19.918507
v -47.121869 -5.880683 19.013793
v -52.322819 -3.165977 14.49395
v -37.851647 -16.281863 21.050094
v -50.964803 -4.74861 12.004829
v -45.535919 -12.212636 17.432174
v -38.079578 -15.151208 18.788778
v -44.182685 -6.105964 18.560972
v -49.157298 -2.262019 16.751547
v -45.540702 -4.52333 11.779813
v -41.01876 -11.760658 20.824148
v -51.870148 -4.52333 14.49395
f 15 17 24
f 4 2 9
f 5 4 11
f 4 9 11
f 13 7 14
f 8 13 14
f 2 3 15
f 5 11 16
f 12 5 16
f 1 12 16
f 13 1 16
f 6 10 17
f 15 3 17
f 8 10 18
f 12 1 18
f 1 13 18
f 13 8 18
f 6 5 19
f 10 6 19
f 5 12 19
f 18 10 19
f 12 18 19
f 11 9 20
f 14 7 20
f 9 14 20
f 9 2 21
f 8 14 21
f 14 9 21
f 2 15 21
f 15 8 21
f 3 2 22
f 2 4 22
f 4 5 22
f 5 6 22
f 17 3 22
f 6 17 22
f 7 13 23
f 16 11 23
f 13 16 23
f 20 7 23
f 11 20 23
f 10 8 24
f 8 15 24
f 17 10 24
