# Generated from Models/Env/Trees/TreeLogs/Colliders/TreeLogDarkCLeavesCH0.asset
o TreeLogDarkCLeavesCH0
v 39.427586 -7.3716 6.097612
v 34.968469 -11.827636 -0.095767
v 34.968469 -10.5914 0.895476
v 36.455261 -24.464131 1.391098
v 40.418782 -12.077327 0.152043
v 39.923182 -23.224404 3.372323
v 35.465326 -6.626017 5.106369
v 41.409977 -7.3716 4.363567
v 37.942054 -24.464131 -0.095767
v 37.941423 -7.867491 6.346053
v 35.959664 -24.464131 -0.095767
v 40.170982 -17.774838 0.648296
v 35.216897 -6.626017 4.611377
v 39.427586 -12.077327 -0.095767
v 41.409977 -7.867491 4.859189
v 41.409977 -8.115437 3.620134
v 35.959664 -24.464131 0.648296
v 39.427586 -23.224404 3.372323
v 35.216897 -7.121908 4.859189
v 40.418782 -14.553292 0.152043
v 39.923182 -23.224404 2.877332
v 34.968469 -10.839346 1.638909
v 38.684189 -8.115437 6.346053
v 35.960926 -7.3716 5.35481
f 7 19 24
f 7 1 8
f 6 4 9
f 1 7 10
f 2 9 11
f 9 4 11
f 7 8 13
f 2 3 14
f 9 2 14
f 1 6 15
f 8 1 15
f 3 13 16
f 13 8 16
f 14 3 16
f 5 14 16
f 15 6 16
f 8 15 16
f 2 11 17
f 11 4 17
f 4 6 18
f 7 13 19
f 17 4 19
f 12 9 20
f 14 5 20
f 9 14 20
f 5 16 20
f 20 16 21
f 6 9 21
f 9 12 21
f 16 6 21
f 12 20 21
f 3 2 22
f 13 3 22
f 2 17 22
f 19 13 22
f 17 19 22
f 6 1 23
f 1 10 23
f 18 6 23
f 10 18 23
f 10 7 24
f 4 18 24
f 18 10 24
f 19 4 24
