# Generated from Models/Env/Trees/TreeLogs/Colliders/TreeLogBirchBCH1.asset
o TreeLogBirchBCH1
v -32.39686 17.03246 24.366112
v -31.217762 4.451549 6.27316
v -30.430584 4.451549 6.27316
v -37.902656 29.624461 29.479554
v -33.575954 2.483182 10.211126
v -27.284094 4.057875 8.636433
v -30.824731 18.604381 20.430613
v -29.251486 1.302162 10.60295
v -38.295689 28.049768 31.448535
v -33.181807 3.273301 6.27316
v -30.824731 19.3945 23.971823
v -30.824731 17.03246 17.682909
v -38.690954 28.443439 29.479554
v -36.329414 29.228013 30.659958
v -33.971222 21.362865 27.907322
v -29.252603 14.678737 19.646962
v -27.284094 2.879627 9.030722
v -30.824731 13.497717 21.21919
v -35.93638 21.756539 27.5155
v -31.217762 1.302162 10.211126
v -30.038667 6.419915 7.847853
v -29.252603 15.07241 18.469023
v -36.722444 29.228013 29.085263
v -31.217762 20.969191 24.760403
f 23 14 24
f 2 3 10
f 4 2 10
f 5 9 13
f 9 4 13
f 4 10 13
f 10 5 13
f 4 9 14
f 14 9 15
f 3 6 17
f 10 3 17
f 8 10 17
f 6 16 17
f 17 16 18
f 1 8 18
f 15 1 18
f 11 15 18
f 16 11 18
f 8 17 18
f 9 5 19
f 15 9 19
f 15 19 20
f 8 1 20
f 10 8 20
f 5 10 20
f 1 15 20
f 19 5 20
f 3 2 21
f 2 4 21
f 6 3 21
f 12 6 21
f 6 12 22
f 12 7 22
f 16 6 22
f 7 12 23
f 4 14 23
f 21 4 23
f 12 21 23
f 15 11 24
f 14 15 24
f 11 16 24
f 22 7 24
f 16 22 24
f 7 23 24
