# Generated from Models/Env/Trees/TreeLogs/Colliders/TreeLogBirchCCH1.asset
o TreeLogBirchCCH1
v -22.346734 8.266872 19.718846
v -21.792306 14.223482 20.688656
v -21.792306 14.223482 21.102856
v -28.716789 9.653928 18.334062
v -25.669393 11.313513 15.424628
v -21.238857 11.037729 23.319125
v -18.74491 12.14656 20.272912
v -26.082283 5.912539 18.473159
v -22.209104 7.714491 18.334062
v -22.762555 13.25295 23.041706
v -19.436968 13.114651 19.996265
v -19.436968 11.176841 21.65615
v -28.437624 9.238218 18.611483
v -26.085212 11.313513 15.563725
v -28.437624 9.929712 18.749806
v -26.082283 5.912539 18.334062
v -20.130978 11.591738 22.349313
v -23.038792 13.25295 22.90261
v -28.716789 9.514815 18.194967
v -18.74491 11.869149 20.272912
v -21.51607 11.31514 23.319125
v -21.37844 14.223482 20.963759
v -26.085212 11.036915 15.563725
v -24.975383 6.744772 19.303874
f 8 9 24
f 5 2 11
f 7 5 11
f 6 1 12
f 1 9 12
f 2 5 14
f 3 2 15
f 4 13 15
f 2 14 15
f 14 4 15
f 5 9 16
f 9 8 16
f 10 6 17
f 6 12 17
f 12 7 17
f 10 3 18
f 3 15 18
f 15 13 18
f 13 4 19
f 8 13 19
f 4 14 19
f 16 8 19
f 5 7 20
f 9 5 20
f 12 9 20
f 7 12 20
f 8 6 21
f 6 10 21
f 13 8 21
f 10 18 21
f 18 13 21
f 2 3 22
f 3 10 22
f 7 11 22
f 11 2 22
f 10 17 22
f 17 7 22
f 14 5 23
f 5 16 23
f 19 14 23
f 16 19 23
f 1 6 24
f 6 8 24
f 9 1 24
