# Generated from Models/Env/Trees/TreeLogs/Colliders/TreeLogOakStandingCH0.asset
o TreeLogOakStandingCH0
v 54.995167 47.808034 196.821014
v -83.245332 20.153393 134.60306
v -65.945982 75.447113 -10.539713
v -45.213768 -69.673612 -7.080454
v 113.778243 2.910094 -10.539713
v 65.370916 -80.069397 196.821014
v -24.462265 -28.199431 220.98713
v -65.945982 -69.673612 3.272964
v 34.243663 61.643136 189.85378
v -83.245332 30.53361 158.769166
v -14.086514 16.682946 224.446388
v 75.727385 -55.854073 196.821014
v 106.854638 -3.984113 -17.458231
v 27.339352 -21.305225 231.389274
v -83.245332 2.878969 158.769166
v -62.493829 78.917556 -7.080454
v 65.370916 -80.069397 179.52472
v -14.086514 -42.034533 214.09296
v -55.570233 -69.673612 -10.539713
v -62.493829 75.447113 -13.998972
v 48.071571 54.717804 169.146943
v 27.339352 61.643136 189.85378
v 113.778243 -3.984113 -10.539713
v 58.428035 47.808034 189.85378
f 21 9 24
f 2 3 8
f 3 2 10
f 1 9 11
f 10 7 11
f 1 11 14
f 11 7 14
f 12 1 14
f 6 12 14
f 2 8 15
f 7 10 15
f 10 2 15
f 3 10 16
f 6 8 17
f 8 6 18
f 6 14 18
f 14 7 18
f 7 15 18
f 15 8 18
f 8 3 19
f 13 4 19
f 17 8 19
f 4 17 19
f 5 13 20
f 16 5 20
f 3 16 20
f 19 3 20
f 13 19 20
f 5 16 21
f 16 9 21
f 11 9 22
f 10 11 22
f 9 16 22
f 16 10 22
f 5 12 23
f 12 6 23
f 4 13 23
f 13 5 23
f 6 17 23
f 17 4 23
f 9 1 24
f 1 12 24
f 12 5 24
f 5 21 24
