# Generated from Models/Env/Ground/FloatingIslands/Colliders/FloatingIslandB_ConvexHull_0.asset
o FloatingIslandB_ConvexHull_0
v 118.493506 -278.110755 -173.168324
v -223.019372 394.613235 12.658417
v -254.046277 382.650691 -23.946993
v -329.893233 -336.632581 -12.489732
v -84.461687 78.252698 -486.123434
v 395.94526 207.749274 10.807849
v 376.013469 -272.603447 9.120324
v -410.431244 114.084676 9.807329
v 255.229676 381.958641 -11.565777
v 52.034727 -385.674997 22.671518
v -299.127142 -258.394029 -164.034977
v 309.044903 202.772155 -139.741928
v 82.471225 288.703784 -244.267812
v -26.464231 55.205993 -473.929756
v -157.965922 149.73679 -399.021567
v -155.229878 -278.580364 -196.333778
v 390.551304 -237.463003 -12.759445
v -329.55896 -199.247885 -165.410575
v -388.025612 196.02406 -36.013716
v 315.032126 -347.77951 -13.457825
v -9.328329 326.36825 -208.679874
v 394.096262 -9.072522 22.434392
v 93.95482 -218.189077 -257.074957
v -246.141629 -380.10172 10.12125
v -89.715972 10.271642 -464.482054
v 0.925265 189.67491 -391.840602
v 223.674627 -382.113293 -10.616913
v -399.404988 -156.764211 5.724023
v 274.57967 85.048862 -184.785631
v -409.835949 125.843673 -27.72769
v -101.863571 175.997859 -415.68091
v 250.99049 301.883086 -129.67141
v 353.677973 305.977983 9.111257
v -179.267416 -391.804294 -10.93754
v -337.755737 306.294929 -19.978015
v -236.245287 -77.486343 -305.061218
v -253.96223 383.010308 14.284571
v 156.869734 -220.82968 -219.945092
v 99.159403 397.99299 -2.196256
v 398.877765 193.826145 -14.101065
v -153.147464 -197.031141 -277.580829
v 378.709621 116.077664 21.403788
v -267.432121 -368.636926 -26.272877
v -132.686376 30.398681 -446.13948
v 226.281945 348.793481 10.990671
v -184.767815 -299.611281 -167.697323
v 327.444323 135.920574 -121.073312
v -330.436301 -222.24134 -161.185205
v 17.603278 122.561332 -419.040165
v -276.324515 370.005671 -26.235124
v -363.919063 -282.798937 -14.542819
v 354.56977 306.764218 -3.948341
v -198.856485 -186.725528 -276.637782
v -378.617183 239.684046 3.19013
v 270.18401 -369.56548 3.668099
v 170.185883 282.488731 -208.088053
v -53.863178 -22.007371 -439.243752
v -397.901941 -158.279376 -11.286928
v 366.570798 -293.486508 -11.328241
v -31.492635 359.337756 -121.434891
v 201.539684 395.311106 -5.305472
v 117.391789 312.521602 -198.915508
v -225.034943 -139.579531 -291.54004
v 8.723967 -385.286807 21.991636
f 10 37 64
f 10 7 22
f 7 17 22
f 1 16 23
f 5 14 25
f 14 5 26
f 21 13 26
f 16 1 27
f 1 23 27
f 23 20 27
f 4 24 28
f 24 8 28
f 14 12 29
f 17 14 29
f 19 15 30
f 28 8 30
f 5 15 31
f 3 21 31
f 26 5 31
f 21 26 31
f 27 10 34
f 15 19 35
f 30 15 36
f 18 30 36
f 2 3 37
f 14 17 38
f 23 14 38
f 20 23 38
f 6 22 40
f 22 17 40
f 23 16 41
f 22 6 42
f 10 22 42
f 6 33 42
f 37 10 42
f 4 11 43
f 24 4 43
f 34 24 43
f 15 5 44
f 5 25 44
f 36 15 44
f 2 37 45
f 42 33 45
f 37 42 45
f 16 27 46
f 27 34 46
f 43 11 46
f 34 43 46
f 29 12 47
f 17 29 47
f 40 17 47
f 12 40 47
f 11 4 48
f 30 18 48
f 18 36 48
f 36 44 48
f 12 14 49
f 14 26 49
f 3 31 50
f 31 15 50
f 15 35 50
f 37 3 50
f 35 37 50
f 4 28 51
f 48 4 51
f 32 9 52
f 12 32 52
f 9 33 52
f 33 6 52
f 6 40 52
f 40 12 52
f 41 16 53
f 25 41 53
f 16 46 53
f 46 11 53
f 19 30 54
f 30 8 54
f 35 19 54
f 8 37 54
f 37 35 54
f 7 10 55
f 20 7 55
f 10 27 55
f 27 20 55
f 26 13 56
f 32 12 56
f 12 49 56
f 49 26 56
f 14 23 57
f 25 14 57
f 23 41 57
f 41 25 57
f 28 30 58
f 30 48 58
f 51 28 58
f 48 51 58
f 17 7 59
f 7 20 59
f 38 17 59
f 20 38 59
f 3 2 60
f 21 3 60
f 2 39 60
f 60 39 61
f 33 9 61
f 39 2 61
f 45 33 61
f 2 45 61
f 21 60 61
f 13 21 62
f 9 32 62
f 56 13 62
f 32 56 62
f 61 9 62
f 21 61 62
f 44 25 63
f 11 48 63
f 48 44 63
f 25 53 63
f 53 11 63
f 8 24 64
f 24 34 64
f 34 10 64
f 37 8 64
