# Generated from Models/Env/Ground/FloatingIslands/Colliders/FloatingSquareIslandB_ConvexHull_0.asset
o FloatingSquareIslandB_ConvexHull_0
v -291.72747 249.977325 -61.675816
v 361.896189 -161.534459 -21.682693
v 360.271604 -161.557532 -38.717793
v -212.965599 -371.660781 -36.172142
v -362.724345 245.818976 2.443747
v 199.609455 353.139449 4.139777
v -7.156146 -390.406076 -1.819423
v 314.923486 185.363898 -61.519868
v 210.963338 -351.105498 -58.738063
v -312.218229 -161.299176 -62.138675
v -20.543983 369.673801 -51.359094
v -337.837099 -193.782366 -2.509519
v 362.869273 0.297742 1.967215
v -194.618444 -336.73343 -64.125153
v -201.787038 363.674413 -2.170925
v 328.026701 -252.384278 -3.648258
v 182.57251 315.834863 -62.764448
v -370.575359 -6.335187 -48.744745
v 325.345192 -192.05881 -61.540814
v 342.399333 212.72322 -34.537044
v -371.459834 135.919307 3.046816
v -364.98207 234.073749 -46.373715
v -205.338454 349.998563 -51.959809
v 208.271316 -358.981706 -11.656836
v 9.447471 -390.718873 -45.908072
v -210.801214 -362.437868 -7.947629
v -337.864545 -196.2958 -47.475192
v 196.466109 353.38196 -43.882034
v 340.132634 212.449227 -4.419507
v -333.332649 210.525249 -62.710485
v 360.310953 1.131261 -47.128867
v -163.632764 326.829805 -62.379895
v 353.38226 -208.432276 -46.789271
v 9.003518 373.09602 -0.91962
v -202.046689 365.74422 -35.938476
v -131.080423 -183.245957 0.807075
v 323.10027 67.550593 -62.414335
v 349.443443 -219.338966 -1.546948
v -206.522435 -361.723927 -56.192486
v 286.71395 -306.188917 -9.666569
v -298.589687 308.588229 -1.351877
v 248.527818 -301.76245 -61.656658
v -372.255099 199.002859 3.55504
v 335.461404 205.3298 -50.676641
v 252.342583 310.406571 2.577177
v -369.642975 -28.398029 -26.648139
v 20.883776 373.575935 -48.439026
v -240.104525 -172.771687 0.492501
v -294.431544 -263.507083 -4.141182
v 361.826391 78.100861 -28.740997
v -373.434236 237.170068 -26.656392
v -20.078998 -353.260047 -62.1715
v -334.128665 -29.543124 -62.318676
v 76.750284 336.801088 -62.331165
v 362.229411 -29.269595 1.820319
v 212.878567 -357.756613 -45.957084
v -108.341898 373.118886 -25.464694
v 30.763254 -391.059304 -25.937712
v 42.975088 373.848746 -22.956164
v -41.603504 -391.213055 -25.0341
v 53.578527 364.191611 2.087266
v -369.500901 -5.256575 -13.711568
v -348.050443 -159.85701 -37.575655
v -53.040213 374.752857 -45.135682
f 59 47 64
f 1 22 23
f 16 7 24
f 4 7 26
f 18 10 27
f 17 14 30
f 18 22 30
f 22 1 30
f 2 3 31
f 23 11 32
f 1 23 32
f 30 1 32
f 17 30 32
f 3 2 33
f 31 3 33
f 19 31 33
f 23 22 35
f 17 8 37
f 14 17 37
f 31 19 37
f 8 31 37
f 7 16 38
f 33 2 38
f 16 33 38
f 10 14 39
f 25 4 39
f 4 27 39
f 27 10 39
f 16 24 40
f 33 16 40
f 9 33 40
f 5 15 41
f 15 35 41
f 35 22 41
f 33 9 42
f 19 33 42
f 14 37 42
f 37 19 42
f 6 5 43
f 21 36 43
f 8 17 44
f 17 28 44
f 28 20 44
f 31 8 44
f 6 13 45
f 28 6 45
f 20 28 45
f 13 29 45
f 29 20 45
f 21 18 46
f 12 7 48
f 21 12 48
f 7 36 48
f 36 21 48
f 7 12 49
f 4 26 49
f 26 7 49
f 27 4 49
f 12 27 49
f 13 2 50
f 29 13 50
f 20 29 50
f 2 31 50
f 44 20 50
f 31 44 50
f 18 21 51
f 22 18 51
f 5 41 51
f 41 22 51
f 43 5 51
f 21 43 51
f 9 25 52
f 39 14 52
f 25 39 52
f 42 9 52
f 14 42 52
f 14 10 53
f 10 18 53
f 30 14 53
f 18 30 53
f 28 17 54
f 32 11 54
f 17 32 54
f 11 47 54
f 47 28 54
f 2 13 55
f 13 6 55
f 36 7 55
f 38 2 55
f 7 38 55
f 6 43 55
f 43 36 55
f 25 9 56
f 9 40 56
f 40 24 56
f 15 34 57
f 35 15 57
f 24 7 58
f 25 56 58
f 56 24 58
f 6 28 59
f 34 6 59
f 28 47 59
f 7 4 60
f 4 25 60
f 58 7 60
f 25 58 60
f 5 6 61
f 15 5 61
f 6 34 61
f 34 15 61
f 12 21 62
f 46 12 62
f 21 46 62
f 27 12 63
f 18 27 63
f 12 46 63
f 46 18 63
f 11 23 64
f 23 35 64
f 47 11 64
f 57 34 64
f 35 57 64
f 34 59 64
