# Generated from Models/Env/Ground/FloatingIslands/Colliders/FloatingIslandA_ConvexHull_0.asset
o FloatingIslandA_ConvexHull_0
v 107.162376 -204.216875 -325.782229
v -45.143571 423.818139 -27.501873
v -14.562022 428.895543 -24.090063
v 25.76514 -371.77218 -8.161023
v 426.614201 66.525897 2.14451
v -404.980743 -107.181093 -4.713108
v -7.859375 39.899706 -514.057213
v -228.232487 167.640291 -302.787066
v -159.736524 -133.564355 -371.348397
v 331.881715 285.89704 6.41847
v -347.042253 214.820305 -1.341665
v 337.330639 -245.04239 -2.67686
v 164.969632 63.687131 -406.32482
v -222.960255 -335.458513 -33.589159
v 17.220758 211.357742 -371.329849
v -79.479528 -265.12827 -286.309728
v 122.762269 -57.100441 -452.805537
v 105.475605 -192.393215 9.505432
v -215.213319 -88.586949 -352.792823
v 238.835672 -333.79732 -19.245852
v 23.646422 -122.718641 -452.684376
v 400.856373 -116.471608 -15.773791
v 98.706803 212.202755 -335.170909
v -289.027451 -291.992583 -2.063497
v -393.799572 67.960343 3.493157
v 62.658596 425.254692 -17.530424
v -134.323013 392.228754 -37.447719
v -94.007723 139.171667 -433.038574
v 246.194249 -24.435338 -306.070008
v 335.460578 287.025264 -9.113038
v 236.11534 -146.500405 -253.236031
v -286.043489 -5.068721 -255.041063
v -161.844685 365.468631 -1.081218
v -346.190781 -220.945247 -33.082011
v -160.781865 223.255762 -299.797698
v 140.680357 269.85505 9.65973
v -277.933481 294.663505 -27.081466
v 16.186687 -250.603276 -305.59704
v -54.23038 28.329923 -501.466184
v 71.669599 119.154365 -454.000969
v 425.946367 65.334539 -14.390846
v -22.060144 -48.368674 -502.702316
v 48.260508 -369.545806 -33.840155
v -191.626935 -61.116486 8.971737
v 212.757988 165.291591 -276.092649
v 330.633906 -26.392774 9.424338
v -215.003079 15.531263 -358.428576
v 400.731044 148.189691 -17.216804
v -368.507504 173.952588 -17.654469
v -405.71676 -107.676965 -19.888357
v 32.013445 -11.077604 -513.4772
v 10.487487 412.354208 -2.762188
v -92.540503 -145.77154 -405.825156
v -263.328251 -311.769309 -28.340265
v 173.308371 367.929819 -27.157249
v 58.62665 -359.082292 -2.559128
v 132.107386 29.108351 -452.915472
v 427.760185 -0.857902 -13.531347
v 77.756657 -180.317188 -383.720119
v -216.956324 192.682752 -293.249648
v -404.062852 -40.823966 -22.669302
v 378.582828 -184.764999 0.32468
v -214.991553 91.761618 8.930203
v -169.030362 -59.777796 -406.425482
f 42 53 64
f 2 3 15
f 14 4 24
f 6 24 25
f 15 3 26
f 23 15 26
f 26 10 30
f 20 1 31
f 12 20 31
f 17 29 31
f 29 22 31
f 3 2 33
f 11 25 33
f 2 27 33
f 19 9 34
f 24 6 34
f 2 15 35
f 27 2 35
f 15 28 35
f 11 33 37
f 33 27 37
f 1 20 38
f 16 21 38
f 28 7 39
f 8 28 39
f 15 23 40
f 28 15 40
f 7 28 40
f 29 13 41
f 39 7 42
f 4 14 43
f 14 16 43
f 20 4 43
f 16 38 43
f 38 20 43
f 24 18 44
f 25 24 44
f 18 36 44
f 23 30 45
f 13 40 45
f 40 23 45
f 5 10 46
f 10 36 46
f 36 18 46
f 19 32 47
f 32 8 47
f 8 39 47
f 10 5 48
f 30 10 48
f 5 41 48
f 41 13 48
f 45 30 48
f 13 45 48
f 25 11 49
f 8 32 49
f 11 37 49
f 32 19 50
f 34 6 50
f 19 34 50
f 17 21 51
f 7 40 51
f 42 7 51
f 21 42 51
f 26 3 52
f 10 26 52
f 3 33 52
f 36 10 52
f 33 36 52
f 16 9 53
f 21 16 53
f 42 21 53
f 9 16 54
f 16 14 54
f 14 24 54
f 34 9 54
f 24 34 54
f 23 26 55
f 30 23 55
f 26 30 55
f 12 18 56
f 20 12 56
f 4 20 56
f 24 4 56
f 18 24 56
f 13 29 57
f 29 17 57
f 40 13 57
f 17 51 57
f 51 40 57
f 22 29 58
f 41 5 58
f 29 41 58
f 21 17 59
f 31 1 59
f 17 31 59
f 1 38 59
f 38 21 59
f 28 8 60
f 27 35 60
f 35 28 60
f 37 27 60
f 8 49 60
f 49 37 60
f 6 25 61
f 25 49 61
f 49 32 61
f 50 6 61
f 32 50 61
f 18 12 62
f 12 31 62
f 31 22 62
f 5 46 62
f 46 18 62
f 58 5 62
f 22 58 62
f 33 25 63
f 36 33 63
f 25 44 63
f 44 36 63
f 9 19 64
f 39 42 64
f 19 47 64
f 47 39 64
f 53 9 64
