# Generated from Models/Env/Ground/FloatingIslands/Colliders/FloatingSquareIslandA_ConvexHull_0.asset
o FloatingSquareIslandA_ConvexHull_0
v -228.828063 -410.252562 -19.955947
v -235.033016 411.301977 -5.669128
v -247.520267 387.109485 -94.32755
v 425.086823 77.915402 -20.256765
v 373.218759 -373.456764 -94.32755
v -373.670101 -373.456764 -94.32755
v 338.594443 365.068351 -94.32755
v 393.7 -393.7 0
v -436.042755 220.183097 -0.000001
v 373.190899 377.794396 -7.620924
v -393.7 -393.7 0
v -411.23139 247.547939 -94.32755
v -399.128461 334.044337 0
v 404.310094 86.975891 -94.32755
v 426.76799 -261.353135 -0.000001
v 227.317975 388.738801 -94.32755
v -359.748098 357.620132 -94.32755
v 276.142116 398.809206 -6.85425
v 401.278316 -261.154929 -94.32755
v -298.020901 -386.53807 -94.32755
v -376.480356 376.844741 -4.373923
v 337.749992 385.8503 -6.552059
v -191.457977 -412.700083 -0.000002
v 426.327348 85.477583 -8.08594
v 350.331297 362.603333 -88.04451
v -154.76147 -386.91601 -94.32755
v -434.21054 259.038264 -0.000001
v -409.960865 195.903555 -94.32755
v -285.411455 -409.275798 -7.278699
v -180.149938 410.644393 -7.900918
v -346.245336 362.548554 -94.32755
v -435.760971 247.318588 -6.682496
v 251.333605 398.245939 -18.900087
f 30 18 33
f 3 5 6
f 5 3 7
f 1 5 8
f 9 6 11
f 3 6 12
f 11 8 13
f 9 11 13
f 5 7 14
f 10 4 14
f 13 8 15
f 3 2 16
f 7 3 16
f 3 12 17
f 2 13 18
f 8 5 19
f 14 4 19
f 5 14 19
f 15 8 19
f 4 15 19
f 6 5 20
f 11 6 20
f 2 3 21
f 13 2 21
f 17 13 21
f 10 7 22
f 15 10 22
f 13 15 22
f 7 16 22
f 18 13 22
f 16 18 22
f 1 8 23
f 8 11 23
f 4 10 24
f 15 4 24
f 10 15 24
f 7 10 25
f 14 7 25
f 10 14 25
f 5 1 26
f 1 20 26
f 20 5 26
f 9 13 27
f 17 12 27
f 13 17 27
f 6 9 28
f 12 6 28
f 20 1 29
f 11 20 29
f 1 23 29
f 23 11 29
f 16 2 30
f 2 18 30
f 3 17 31
f 21 3 31
f 17 21 31
f 9 27 32
f 27 12 32
f 28 9 32
f 12 28 32
f 18 16 33
f 16 30 33
