# Generated from Models/Env/Ground/FloatingIslands/Colliders/FloatingIslandC_ConvexHull_0.asset
o FloatingIslandC_ConvexHull_0
v 1.861927 -318.51044 -20.354239
v -36.109402 368.139214 -11.67778
v -51.908976 359.571819 -30.308967
v 163.539875 12.631828 -380.051108
v 354.442826 110.852562 3.021958
v -354.514464 49.873139 5.32624
v -63.437932 -56.18148 -470.722639
v 238.215916 -281.386395 3.317173
v -34.326955 184.312193 -373.482558
v -244.163002 -268.025463 1.088454
v 175.742113 156.186901 -290.617061
v -23.923931 -136.037464 -422.808297
v -292.252403 114.5412 -138.671731
v 36.809002 370.928105 0.829221
v -220.849711 -120.442583 -219.043984
v 234.787201 -291.057046 -18.609036
v -326.96606 167.732692 0.942142
v 68.55706 168.52944 -379.723293
v 257.133792 218.679843 -36.727802
v 262.805233 90.937724 -230.157797
v -200.414407 12.336048 -313.201732
v -176.69342 -309.200795 -23.161777
v 124.088766 -40.667989 -408.526415
v -79.310439 168.542506 -364.533732
v -127.545115 -110.470174 -383.892118
v 294.648448 -144.679351 -16.627088
v 112.770927 -320.744248 5.32624
v 69.317886 9.05487 -448.884855
v 104.404442 328.91861 5.32624
v 161.606116 -317.84332 -20.943733
v -291.265145 19.507478 -160.04643
v -252.768394 -253.668206 -25.784763
v 23.932411 -92.32236 -449.892781
v 46.375409 359.331711 -30.091917
v -58.613795 11.130284 -458.853773
v 161.774342 -22.057204 -373.887794
v 354.183683 60.652664 -18.105008
v -266.265055 156.425225 -125.16222
v -89.622378 132.497744 -389.165325
v 336.0891 151.965342 4.753006
v -64.300419 -138.151651 -414.147638
v 184.778535 93.317868 -337.810967
v 263.5359 118.32712 -209.536115
v -352.014829 92.783868 -30.722543
v 264.696696 25.091222 6.24154
v -181.664438 258.565352 5.444954
v 253.972462 -256.105609 -26.820945
v -232.252235 -281.872768 -20.98795
v -182.091244 47.996877 -328.763207
v -22.039437 207.124318 -340.657754
v -199.901357 -22.137374 -312.865807
v -198.868725 -298.939017 2.546939
v -53.908112 151.817326 -400.257136
v 104.351361 328.997495 -25.98261
v 97.824064 10.273578 -439.155143
v 198.631565 -309.513254 -23.938682
v 104.718487 149.190785 -377.2484
v -0.197812 369.553428 -26.191212
v -163.173837 287.965627 -15.535573
v -37.176943 369.865248 2.570098
v 52.104371 -309.716041 5.903897
v -12.9801 -83.336804 -469.289727
v 357.03873 113.48299 -10.452343
v -271.008881 -204.21466 -25.626128
f 15 32 64
f 3 9 24
f 5 8 26
f 22 1 27
f 1 12 30
f 27 1 30
f 13 21 31
f 15 25 32
f 23 16 33
f 11 18 34
f 28 7 35
f 4 20 36
f 23 4 36
f 26 36 37
f 5 26 37
f 36 20 37
f 13 17 38
f 24 13 38
f 13 24 39
f 8 5 40
f 19 29 40
f 12 1 41
f 1 22 41
f 25 7 41
f 20 4 42
f 11 19 43
f 19 40 43
f 42 11 43
f 20 42 43
f 6 17 44
f 17 13 44
f 31 6 44
f 13 31 44
f 27 8 45
f 8 40 45
f 40 29 45
f 17 6 46
f 6 45 46
f 45 29 46
f 8 16 47
f 16 23 47
f 26 8 47
f 23 36 47
f 36 26 47
f 10 32 48
f 32 25 48
f 41 22 48
f 25 41 48
f 7 21 49
f 21 13 49
f 35 7 49
f 13 39 49
f 39 35 49
f 9 3 50
f 18 9 50
f 34 18 50
f 21 7 51
f 7 25 51
f 25 15 51
f 15 31 51
f 31 21 51
f 6 10 52
f 22 27 52
f 10 48 52
f 48 22 52
f 9 18 53
f 24 9 53
f 18 28 53
f 28 35 53
f 39 24 53
f 35 39 53
f 19 11 54
f 14 29 54
f 29 19 54
f 34 14 54
f 11 34 54
f 4 23 55
f 23 33 55
f 42 4 55
f 16 8 56
f 8 27 56
f 30 12 56
f 27 30 56
f 12 33 56
f 33 16 56
f 18 11 57
f 28 18 57
f 11 42 57
f 55 28 57
f 42 55 57
f 3 2 58
f 14 34 58
f 50 3 58
f 34 50 58
f 3 24 59
f 38 17 59
f 24 38 59
f 2 3 60
f 29 14 60
f 17 46 60
f 46 29 60
f 58 2 60
f 14 58 60
f 3 59 60
f 59 17 60
f 45 6 61
f 27 45 61
f 6 52 61
f 52 27 61
f 7 28 62
f 33 12 62
f 41 7 62
f 12 41 62
f 28 55 62
f 55 33 62
f 5 37 63
f 37 20 63
f 40 5 63
f 20 43 63
f 43 40 63
f 10 6 64
f 6 31 64
f 31 15 64
f 32 10 64
