# Generated from Models/Env/Ground/FloatingIslands/Colliders/FloatingSquareIslandC_ConvexHull_0.asset
o FloatingSquareIslandC_ConvexHull_0
v -389.82441 326.268632 -46.911673
v 403.468609 -4.427419 -29.720278
v 401.4781 29.816933 -20.324855
v -372.264185 -348.406794 -3.391931
v -375.870081 -374.529849 -99.076834
v 362.618277 359.004631 -97.189508
v 363.428861 -364.812039 -92.726185
v 369.613164 369.172521 -2.386907
v 378.994522 -370.607987 -2.008006
v -362.908208 367.642876 -94.626506
v -361.255689 381.940205 -5.391602
v -102.090819 -408.965934 -24.472076
v 91.428724 397.300632 -45.0289
v 393.318493 247.173027 -82.684771
v -58.86879 -408.083419 -70.903065
v -381.436298 -16.655202 -3.068462
v -385.824093 -386.141745 -75.389862
v 391.623435 -281.14279 -83.57145
v -358.872184 389.597843 -83.368087
v -391.262579 259.197295 -89.029238
v 376.606811 -383.606364 -65.458594
v 381.418201 377.903606 -75.670081
v -390.078823 -352.925102 -25.855191
v -115.41918 395.904897 -9.565189
v 381.408589 346.212896 -2.140698
v -391.709828 224.184201 -14.231407
v -137.680597 -390.464911 -5.181778
v 354.99498 384.058746 -11.311547
v 383.879802 -380.906224 -12.060216
v -355.234975 397.952698 -28.835336
v 403.597317 190.133138 -30.448151
v -376.026385 -372.827344 -22.337303
v -80.03309 -392.210559 -94.005397
v 403.064237 30.051516 -70.590625
v -390.414636 -349.47537 -80.340442
v -0.475958 387.924223 -83.197412
v -13.172891 -408.06171 -24.619902
v 353.673618 -384.604005 -77.909487
v 389.907688 -359.129452 -11.361577
v -379.789787 388.11951 -30.255266
v -195.679686 397.053424 -68.260148
v -385.832766 -315.478063 -4.151821
v -312.18992 382.813777 -93.075852
v 355.618396 384.548301 -68.794128
v 391.60943 348.495019 -48.39108
v 377.420136 -191.148969 -93.118645
v -372.476809 361.903059 -5.160843
v 161.058881 389.467571 -4.498732
v 113.388655 -385.127199 -2.801507
v -391.019505 303.725876 -82.855428
v 389.332068 -359.449954 -58.687646
v 391.0156 347.785214 -18.750289
v 91.24977 396.285801 -19.215083
v -390.093203 316.773176 -19.380789
v 403.742959 121.19158 -68.242612
v 378.361193 381.186351 -18.443242
v -384.424635 -386.053472 -63.102338
v 354.966595 375.917525 -83.555807
v -370.924613 -367.264165 -11.998267
v -379.142791 370.715132 -66.822534
v -92.328874 396.406391 -68.403997
v -160.810006 -397.404655 -83.699144
v -355.726116 396.386493 -58.830693
v 10.112297 -399.714683 -82.264543
f 38 15 64
f 5 6 7
f 6 5 10
f 4 9 16
f 15 12 17
f 10 5 20
f 14 6 22
f 16 9 25
f 11 24 30
f 3 2 31
f 25 3 31
f 5 7 33
f 2 18 34
f 18 14 34
f 5 17 35
f 20 5 35
f 17 23 35
f 26 20 35
f 23 26 35
f 12 15 37
f 27 12 37
f 21 29 37
f 7 21 38
f 33 7 38
f 37 15 38
f 21 37 38
f 2 3 39
f 3 25 39
f 25 9 39
f 9 29 39
f 11 30 40
f 30 13 41
f 36 19 41
f 4 16 42
f 23 4 42
f 16 26 42
f 26 23 42
f 6 10 43
f 10 19 43
f 36 6 43
f 19 36 43
f 13 28 44
f 14 22 45
f 7 6 46
f 6 14 46
f 18 7 46
f 14 18 46
f 8 11 47
f 25 8 47
f 16 25 47
f 26 16 47
f 11 40 47
f 11 8 48
f 24 11 48
f 8 28 48
f 9 4 49
f 4 27 49
f 29 9 49
f 27 37 49
f 37 29 49
f 10 20 50
f 20 26 50
f 1 40 50
f 7 18 51
f 18 2 51
f 21 7 51
f 29 21 51
f 2 39 51
f 39 29 51
f 25 31 52
f 45 22 52
f 31 45 52
f 28 13 53
f 13 30 53
f 30 24 53
f 24 48 53
f 48 28 53
f 40 1 54
f 26 47 54
f 47 40 54
f 1 50 54
f 50 26 54
f 31 2 55
f 2 34 55
f 34 14 55
f 14 45 55
f 45 31 55
f 8 25 56
f 28 8 56
f 22 44 56
f 44 28 56
f 52 22 56
f 25 52 56
f 17 12 57
f 23 17 57
f 12 32 57
f 32 23 57
f 22 6 58
f 6 36 58
f 44 22 58
f 36 44 58
f 4 23 59
f 27 4 59
f 12 27 59
f 32 12 59
f 23 32 59
f 19 10 60
f 40 19 60
f 10 50 60
f 50 40 60
f 41 13 61
f 36 41 61
f 13 44 61
f 44 36 61
f 17 5 62
f 15 17 62
f 5 33 62
f 33 15 62
f 19 40 63
f 40 30 63
f 41 19 63
f 30 41 63
f 15 33 64
f 33 38 64
